<?xml version="1.0" standalone="no"?>
<!DOCTYPE svg PUBLIC "-//W3C//DTD SVG 20010904//EN"
 "http://www.w3.org/TR/2001/REC-SVG-20010904/DTD/svg10.dtd">
<svg version="1.0" xmlns="http://www.w3.org/2000/svg"
 width="3241.000000pt" height="3241.000000pt" viewBox="0 0 3241.000000 3241.000000"
 preserveAspectRatio="xMidYMid meet">
<metadata>
Created by potrace 1.14, written by Peter Selinger 2001-2017
</metadata>
<g transform="translate(0.000000,3241.000000) scale(0.100000,-0.100000)"
fill="#000000" stroke="none">
<path d="M14338 30595 c-3 -14 0 -29 6 -34 9 -7 11 -1 8 24 -5 41 -8 44 -14
10z"/>
<path d="M15877 30252 c-15 -9 -30 -24 -32 -33 -3 -9 -20 -24 -38 -33 -33 -16
-19 -21 18 -7 24 10 55 -4 55 -24 0 -27 -40 -38 -119 -33 -74 5 -131 -5 -131
-23 0 -5 12 -11 28 -15 15 -3 34 -8 42 -11 37 -12 105 -16 233 -15 l137 1 -40
-43 c-23 -24 -47 -52 -55 -62 -13 -18 -14 -17 -21 14 -4 18 -14 36 -23 41 -9
4 -77 7 -151 6 -74 -1 -148 2 -163 6 -25 7 -28 6 -22 -9 4 -9 10 -28 13 -41 4
-22 3 -23 -29 -16 -19 5 -91 9 -161 10 -122 2 -130 3 -190 34 -62 31 -64 31
-111 17 -46 -14 -49 -13 -101 14 -71 38 -123 43 -194 19 -31 -11 -68 -17 -82
-14 -19 4 -32 -1 -50 -20 -28 -30 -39 -31 -85 -7 -33 18 -37 18 -117 2 -46
-10 -148 -28 -228 -40 -80 -12 -154 -24 -165 -26 -10 -2 -37 -6 -60 -10 -45
-6 -197 -39 -235 -50 l-25 -7 25 28 c33 37 80 65 165 100 39 16 80 35 92 43
19 12 25 12 44 -1 20 -14 27 -14 73 3 51 19 86 23 161 21 l40 -2 -24 -20 c-22
-18 -23 -22 -10 -35 13 -13 20 -13 50 0 44 18 63 41 79 91 7 22 20 51 28 64
15 22 14 24 -9 42 -13 10 -27 19 -30 19 -4 0 -9 -20 -12 -45 -2 -26 -7 -49
-11 -52 -7 -8 -149 -16 -271 -16 -75 0 -114 5 -155 20 l-55 20 -24 -25 c-23
-23 -28 -24 -106 -18 -91 6 -144 -4 -190 -40 -26 -20 -40 -23 -96 -20 -76 4
-149 -13 -188 -42 -27 -19 -32 -20 -76 -7 l-47 15 -54 -57 c-30 -31 -54 -62
-54 -68 0 -6 18 -29 41 -50 66 -65 67 -72 14 -95 -25 -11 -76 -22 -113 -26
-37 -3 -85 -10 -107 -16 -37 -9 -40 -8 -67 24 -32 39 -34 47 -11 63 9 7 13 17
9 23 -10 17 -48 15 -72 -3 -43 -32 -77 -4 -67 58 5 32 2 32 -43 11 l-33 -16
30 -59 c17 -35 39 -63 52 -68 31 -12 54 -41 61 -76 7 -35 -30 -119 -54 -122
-8 -1 -69 -11 -134 -23 -73 -13 -123 -17 -128 -12 -6 6 -6 12 1 16 28 18 8 32
-50 34 l-61 3 4 -33 c4 -39 -24 -52 -42 -19 -6 12 -17 21 -25 21 -12 0 -12 -5
-4 -26 11 -31 7 -37 -25 -41 -16 -2 -29 4 -39 20 -18 27 -48 28 -159 4 -6 -1
-12 9 -14 22 -2 13 -9 31 -15 40 -10 14 -10 14 -5 -1 8 -27 -13 -74 -39 -88
-22 -12 -28 -11 -45 5 -20 18 -20 18 -20 -12 0 -16 -9 -39 -20 -51 -12 -12
-19 -22 -18 -23 2 0 17 -2 33 -3 47 -4 95 -17 95 -25 0 -11 -39 -27 -137 -56
-126 -36 -130 -49 -13 -42 l95 6 -33 -27 c-55 -46 -41 -53 56 -26 48 13 116
27 152 30 l65 7 -19 -22 c-33 -37 -78 -59 -166 -81 -47 -12 -95 -28 -107 -36
-12 -8 -24 -14 -27 -14 -2 0 -18 25 -35 55 -17 30 -35 55 -41 55 -5 0 -22 -14
-37 -30 -26 -28 -31 -30 -61 -19 -27 9 -32 15 -26 33 4 11 11 23 15 24 20 8
-4 22 -27 16 -31 -8 -42 17 -20 47 11 16 12 26 5 35 -7 9 -29 1 -87 -32 -84
-48 -198 -98 -250 -109 -31 -6 -33 -5 -30 17 3 22 0 23 -60 23 -90 1 -152 -17
-182 -53 -19 -22 -30 -28 -45 -22 -11 4 -37 10 -57 14 -33 6 -37 4 -40 -16 -2
-19 -10 -24 -41 -26 -20 -2 -35 -7 -32 -13 10 -15 34 -11 85 15 l49 24 10 -29
c15 -43 5 -59 -36 -59 -21 0 -57 -12 -87 -29 -28 -16 -61 -27 -73 -25 -17 3
-23 -1 -23 -16 0 -24 -28 -40 -54 -30 -25 9 -73 -7 -111 -37 -72 -59 30 -48
255 27 96 32 191 62 210 65 19 4 60 19 90 34 73 38 187 64 277 64 69 0 105
-10 74 -21 -28 -9 -71 -58 -73 -81 -3 -22 2 -26 40 -32 70 -13 80 -31 24 -42
-49 -10 -133 -53 -246 -126 -104 -68 -107 -71 -82 -81 14 -5 26 -13 26 -17 0
-8 -99 -63 -113 -63 -5 0 -6 4 -3 9 3 4 -2 15 -12 24 -16 15 -21 14 -59 -8
l-42 -23 -25 23 -25 23 -39 -19 c-37 -19 -38 -21 -37 -64 1 -27 -2 -45 -9 -46
-6 0 0 -5 13 -10 21 -8 28 -6 45 16 16 19 39 29 91 40 38 8 71 13 72 11 2 -2
-11 -15 -29 -28 -18 -14 -46 -37 -63 -52 -16 -14 -41 -28 -56 -31 -15 -4 -53
-22 -86 -42 -32 -20 -79 -47 -105 -59 -43 -22 -48 -27 -48 -58 0 -22 -6 -36
-16 -40 -23 -9 -24 -7 -33 43 -1 3 -12 -6 -25 -18 -16 -15 -23 -31 -21 -52 2
-28 -2 -32 -118 -90 -66 -33 -153 -83 -193 -110 -61 -42 -78 -50 -102 -44 -27
5 -30 3 -35 -24 -5 -22 -17 -36 -46 -50 -21 -11 -46 -28 -55 -37 -16 -15 -18
-15 -31 2 -13 18 -14 18 -38 -5 -34 -31 -52 -20 -32 19 14 27 14 30 -4 40 -37
19 -68 11 -103 -26 -33 -35 -68 -39 -68 -9 0 22 -29 25 -43 5 -10 -15 -55 -40
-71 -40 -10 0 -12 40 -4 48 6 6 8 18 4 28 -11 28 -30 0 -28 -40 2 -31 -1 -36
-42 -56 -25 -12 -48 -30 -51 -40 -8 -27 -37 -34 -52 -14 -12 17 -13 17 -14 1
-1 -9 -3 -21 -4 -27 -1 -5 -3 -21 -4 -34 0 -13 -9 -34 -20 -47 l-18 -23 -22
21 c-29 27 -45 22 -116 -42 -57 -51 -59 -55 -49 -82 11 -28 9 -30 -49 -62 -54
-30 -62 -32 -72 -17 -7 9 -17 16 -22 16 -6 0 -48 -40 -94 -88 -78 -82 -123
-132 -229 -257 -24 -27 -47 -51 -51 -53 -13 -5 -11 -30 4 -35 9 -3 8 -8 -3
-20 -30 -31 -66 -26 -124 19 -37 28 -47 32 -44 17 2 -15 -3 -18 -31 -18 -37 0
-50 -17 -31 -40 10 -12 10 -18 0 -30 -10 -12 -66 -45 -76 -45 -9 0 13 37 30
51 18 15 19 19 7 33 -25 30 -62 16 -88 -34 -41 -78 -52 -89 -113 -120 -48 -24
-60 -35 -60 -54 0 -13 7 -30 16 -37 13 -11 21 -11 44 3 49 28 41 8 -19 -52
-56 -55 -90 -117 -76 -140 3 -5 20 -13 37 -18 33 -8 51 -32 25 -32 -8 0 -27
-10 -43 -22 -23 -19 -42 -23 -95 -24 -75 0 -111 -17 -137 -66 -10 -17 -34 -51
-54 -76 -21 -26 -38 -52 -38 -59 0 -17 20 -17 45 0 31 20 50 15 53 -15 4 -34
11 -35 70 -2 54 30 72 49 72 80 0 18 9 23 60 34 33 7 63 10 67 7 3 -4 -8 -20
-24 -37 -17 -17 -45 -60 -64 -96 -19 -36 -47 -78 -63 -95 -28 -28 -30 -29 -48
-12 -19 17 -20 17 -34 -2 -13 -17 -13 -21 1 -31 21 -16 19 -20 -17 -34 -18 -7
-56 -37 -84 -65 -48 -50 -51 -52 -60 -31 -5 11 -19 22 -31 24 -12 2 -25 12
-28 23 -6 17 -12 19 -38 13 -18 -4 -37 -13 -43 -22 -8 -11 -31 -16 -83 -16
-77 -2 -91 -10 -91 -54 0 -28 24 -38 55 -22 42 22 46 6 7 -37 l-37 -42 -33 20
c-39 25 -59 20 -68 -18 -12 -47 -59 -107 -134 -168 -39 -32 -85 -79 -102 -103
l-31 -45 21 -18 22 -17 -40 -51 c-22 -28 -42 -51 -45 -51 -2 0 5 21 16 46 l19
47 -45 -6 c-25 -2 -47 -6 -49 -8 -1 -2 -31 -62 -66 -134 -101 -207 -176 -319
-283 -425 l-55 -54 24 -29 c30 -36 27 -47 -15 -62 -47 -15 -79 -51 -86 -93 -9
-55 -28 -85 -69 -105 -31 -16 -34 -21 -26 -38 9 -16 6 -24 -17 -44 -15 -13
-50 -36 -78 -51 -27 -15 -69 -42 -93 -61 -42 -34 -42 -34 -42 -10 0 16 -7 26
-19 30 -20 5 -71 -16 -82 -35 -7 -11 10 -77 20 -79 3 0 14 -2 23 -4 10 -2 24
8 33 22 29 44 36 10 9 -45 -14 -29 -27 -61 -29 -71 -7 -37 -55 -120 -81 -140
-22 -17 -30 -19 -41 -9 -24 20 -35 60 -33 118 4 80 2 131 -4 138 -4 3 -25 -8
-49 -24 -42 -30 -42 -30 -42 -95 0 -35 -5 -73 -11 -84 -16 -29 -9 -57 21 -81
l26 -20 -39 -35 c-36 -32 -41 -34 -53 -19 -8 9 -29 24 -46 33 -31 14 -33 14
-33 -2 0 -20 30 -51 48 -51 8 0 6 -12 -5 -35 -16 -33 -16 -36 2 -49 18 -13 18
-18 7 -48 -17 -48 -15 -66 7 -78 17 -8 23 -5 38 20 18 31 22 34 46 24 20 -7 3
-63 -33 -106 -26 -31 -32 -33 -87 -32 l-59 1 4 -34 c5 -39 15 -48 41 -33 12 6
22 6 26 1 9 -15 -26 -29 -60 -24 -36 5 -55 20 -55 43 0 26 -27 43 -66 42 -35
-1 -35 -1 -29 31 16 73 111 187 157 187 17 0 16 5 -10 43 -16 23 -39 68 -51
100 -13 31 -27 57 -32 57 -20 0 -66 -24 -90 -46 -30 -29 -44 -19 -30 20 8 20
7 25 -7 24 -9 0 -28 2 -42 6 -22 6 -28 2 -42 -28 -21 -43 -100 -155 -110 -156
-5 0 -8 9 -8 20 0 37 -79 50 -117 18 -10 -8 -9 -17 3 -41 23 -44 19 -90 -15
-184 -32 -87 -29 -99 21 -72 30 16 45 -3 24 -32 -21 -31 -20 -62 2 -82 24 -22
27 -22 66 8 18 14 45 25 59 25 21 0 28 -6 35 -32 5 -22 15 -34 29 -36 l21 -3
-23 -47 c-22 -43 -32 -78 -34 -123 -1 -10 -13 -19 -32 -23 l-31 -6 23 -20 c24
-19 24 -19 41 1 20 23 38 17 38 -12 0 -24 -34 -92 -66 -135 -18 -22 -33 -31
-55 -32 -18 0 -36 -5 -41 -10 -15 -15 -1 -31 23 -25 20 6 21 3 16 -48 -2 -31
-24 -105 -50 -169 -47 -121 -62 -199 -42 -226 9 -13 16 -14 33 -5 31 16 32 15
32 -37 l0 -48 -51 -22 c-38 -16 -50 -25 -47 -39 2 -12 11 -17 25 -15 37 5 34
-15 -10 -62 -38 -41 -47 -46 -92 -49 l-50 -4 0 -39 c0 -32 -3 -39 -20 -39 -13
0 -19 6 -17 16 2 13 -6 16 -37 15 -30 -1 -37 -4 -29 -13 16 -20 -13 -41 -50
-35 -38 5 -42 -10 -7 -26 21 -10 28 -8 54 18 36 37 64 40 59 7 -1 -13 5 -36
15 -51 10 -15 19 -37 20 -49 1 -29 14 -36 48 -27 18 6 34 4 45 -5 17 -12 17
-15 -6 -49 -17 -25 -37 -40 -62 -47 -29 -7 -39 -16 -44 -37 -9 -37 -62 -147
-96 -202 l-28 -44 25 -24 25 -23 -22 -29 c-15 -21 -22 -46 -24 -87 -1 -32 -3
-66 -3 -76 -1 -10 -14 -31 -29 -47 -24 -24 -26 -29 -12 -37 8 -6 16 -23 18
-38 3 -34 5 -37 24 -30 25 10 46 58 57 135 11 69 33 119 57 127 5 2 8 -14 6
-37 -3 -29 1 -47 13 -60 16 -17 15 -20 -4 -39 -37 -37 -53 -82 -56 -158 -3
-59 -7 -78 -22 -88 -10 -7 -26 -20 -37 -27 -21 -16 -24 -54 -8 -116 13 -53 2
-60 -64 -42 -39 11 -47 11 -55 -1 -6 -10 -2 -19 12 -31 22 -19 20 -47 -6 -68
-17 -14 -20 -50 -4 -50 6 0 19 -10 29 -22 17 -21 17 -25 3 -40 -23 -26 -28
-99 -9 -154 19 -57 19 -54 1 -54 -7 0 -18 8 -24 18 -8 14 -13 15 -28 4 -10 -6
-28 -16 -40 -21 -12 -6 -24 -19 -28 -30 -13 -43 -110 -21 -178 39 -20 18 -37
27 -37 20 0 -6 -4 -9 -9 -5 -5 3 -13 1 -16 -5 -4 -7 3 -10 22 -8 25 3 31 -3
60 -59 21 -42 30 -72 27 -91 l-5 -29 85 1 84 1 -3 27 c-4 33 28 78 56 78 18 0
19 -2 3 -37 -9 -21 -17 -42 -18 -48 -1 -5 -10 -35 -20 -65 -9 -30 -19 -85 -21
-122 -5 -65 -4 -68 20 -74 24 -6 25 -9 19 -63 -7 -73 -20 -121 -39 -148 -17
-24 -41 -21 -50 6 -3 10 -16 23 -30 29 -22 10 -29 7 -77 -44 -60 -63 -86 -108
-90 -153 -1 -17 -6 -31 -10 -31 -15 0 -8 -35 12 -60 23 -29 24 -49 7 -110 -15
-51 -11 -100 7 -100 14 0 46 51 46 77 1 10 7 29 15 43 l14 25 1 -26 c0 -29 28
-59 54 -59 18 0 18 5 -4 -124 -5 -33 -10 -64 -10 -69 0 -16 54 3 73 25 10 11
21 18 25 14 4 -4 7 -70 7 -145 0 -99 4 -142 13 -154 16 -19 2 -28 -66 -47
l-43 -11 28 -22 c15 -12 34 -27 41 -34 23 -23 51 -15 58 15 17 75 25 99 39
117 15 19 15 16 10 -40 -7 -68 -27 -141 -57 -201 -17 -35 -18 -47 -8 -82 6
-23 19 -46 30 -52 34 -18 43 -46 25 -80 -9 -16 -19 -30 -23 -30 -18 0 -39 -57
-36 -95 5 -53 13 -73 22 -58 4 7 25 18 47 26 23 7 39 19 37 26 -1 7 5 32 14
56 14 39 14 45 0 73 -22 42 -21 46 20 113 38 60 65 74 92 47 16 -16 15 -38 -3
-38 -24 0 -32 -28 -21 -75 10 -42 13 -45 43 -45 26 0 33 -4 33 -19 0 -18 -25
-34 -46 -30 -29 5 -43 -4 -49 -31 -8 -34 -12 -36 -43 -14 -22 15 -22 15 -22
-30 0 -32 -5 -48 -17 -55 -15 -8 -15 -11 -3 -26 13 -16 17 -14 53 26 l38 44
20 -25 c35 -43 47 -80 39 -117 -10 -44 -5 -109 16 -180 l16 -56 -36 -32 c-20
-17 -36 -39 -36 -48 0 -25 28 -32 50 -12 17 16 19 16 29 -4 6 -11 11 -47 11
-80 l0 -60 -35 1 c-19 1 -38 -2 -42 -5 -8 -9 -7 -131 2 -177 16 -81 21 -140
14 -152 -6 -9 -18 -7 -49 7 -41 18 -43 18 -55 1 -27 -36 11 -67 48 -41 12 8
26 15 33 15 21 0 32 -47 32 -131 0 -69 3 -91 21 -120 12 -21 32 -39 45 -41 21
-4 23 -1 22 34 -1 21 2 38 6 38 4 0 8 -10 8 -23 0 -13 13 -43 29 -68 28 -45
28 -46 10 -68 -29 -35 -24 -68 11 -86 31 -16 40 -6 21 24 -16 26 -1 36 52 36
40 0 52 -4 52 -15 0 -9 -13 -17 -33 -20 -45 -7 -44 -21 1 -45 33 -18 40 -28
59 -90 26 -84 31 -227 9 -292 -26 -79 -71 -40 -87 74 -3 27 -13 60 -20 75 -14
26 -13 28 16 43 16 9 30 18 30 20 0 13 -43 84 -53 88 -22 8 -44 -16 -52 -58
-13 -63 -12 -83 7 -138 21 -59 22 -91 7 -136 -14 -40 -33 -40 -27 0 4 27 1 32
-24 41 -15 5 -28 14 -28 18 0 20 -34 40 -68 40 -34 0 -35 -1 -20 -16 9 -9 27
-18 40 -19 13 -1 26 -3 30 -4 3 0 1 -15 -5 -31 -10 -25 -8 -45 10 -111 11 -44
20 -94 19 -111 -2 -22 6 -38 27 -60 36 -35 51 -23 42 32 -18 102 -2 168 26
107 16 -36 48 -42 59 -11 13 32 38 22 32 -14 -3 -25 -1 -27 33 -28 46 -1 64
-20 71 -72 4 -35 0 -46 -25 -74 l-29 -33 -26 28 c-28 30 -44 34 -52 12 -3 -8
-31 -24 -62 -35 -31 -12 -60 -24 -64 -26 -13 -8 12 -34 32 -34 17 0 18 -8 14
-86 l-4 -87 35 -38 c63 -70 87 -132 135 -351 20 -92 22 -97 51 -103 26 -6 34
-15 30 -38 -3 -16 30 -100 49 -128 28 -38 25 -62 -10 -82 -34 -21 -30 -28 -50
100 -11 71 -12 72 -43 75 -28 3 -35 10 -59 61 -19 39 -34 57 -46 57 -30 0 -32
-10 -6 -47 13 -20 24 -43 25 -52 3 -35 -4 -67 -18 -95 l-16 -30 26 17 c15 9
28 17 31 17 7 0 41 -64 65 -122 l23 -58 49 0 c41 0 51 -4 65 -26 16 -24 16
-27 -5 -68 -15 -31 -19 -53 -15 -77 12 -57 51 -136 110 -220 41 -59 54 -83 45
-92 -8 -8 -20 -6 -46 6 -35 17 -35 17 -25 -2 14 -27 27 -34 69 -35 43 -1 55
-21 69 -116 11 -79 79 -223 100 -215 7 3 30 5 50 5 60 0 67 11 42 59 -20 40
-20 44 -5 67 18 27 28 30 44 10 17 -21 51 -27 51 -10 0 8 -13 17 -30 21 -44 8
-35 41 20 75 43 25 53 18 57 -40 4 -46 1 -54 -14 -58 -11 -3 -24 -18 -30 -33
-9 -24 -8 -28 6 -25 24 6 51 -20 66 -63 l13 -38 12 30 c6 17 10 45 8 62 -2 18
-3 33 -2 33 13 0 48 -72 50 -102 1 -22 13 -56 28 -78 31 -48 32 -60 6 -60 -25
0 -37 -27 -23 -49 7 -11 22 -15 47 -13 36 3 37 1 62 -53 30 -65 28 -70 -27
-74 -30 -2 -21 -36 10 -36 18 0 27 -8 34 -30 6 -16 37 -56 69 -88 54 -54 66
-80 59 -121 -1 -5 10 -21 25 -37 16 -17 27 -41 30 -64 4 -44 17 -65 76 -125
25 -25 53 -67 63 -92 l17 -47 -32 -62 c-38 -73 -37 -113 4 -173 29 -43 33 -87
11 -129 -14 -28 -14 -28 33 -55 25 -15 59 -39 74 -53 17 -17 44 -29 72 -33 24
-4 53 -15 64 -24 25 -22 64 -100 57 -113 -4 -5 -30 -8 -58 -7 l-52 3 -2 -42
c-2 -27 2 -43 8 -43 20 0 77 40 97 67 16 21 22 24 39 15 27 -15 53 -55 55 -87
3 -32 18 -37 89 -29 55 6 57 5 52 -15 -3 -14 -13 -21 -29 -21 -33 0 -35 -11
-8 -44 20 -23 27 -26 39 -16 22 18 47 -6 43 -41 -2 -23 5 -33 47 -62 28 -18
79 -67 114 -108 82 -96 140 -157 183 -194 20 -16 50 -58 68 -93 18 -34 43 -70
55 -80 33 -26 75 -91 75 -116 1 -30 22 -53 63 -71 20 -8 51 -35 69 -59 18 -24
58 -60 89 -80 57 -37 74 -62 58 -87 -14 -22 -10 -37 8 -35 25 4 103 -32 135
-62 15 -14 33 -41 39 -61 15 -47 62 -111 98 -135 15 -11 43 -42 62 -70 19 -28
40 -57 47 -64 6 -7 12 -18 12 -23 0 -5 22 -25 49 -44 48 -35 66 -63 75 -119 3
-16 15 -39 26 -51 18 -19 26 -21 49 -13 61 24 183 -68 381 -288 57 -63 100
-93 164 -114 28 -9 42 -21 52 -45 13 -33 70 -85 92 -85 6 0 37 -25 69 -54 32
-30 112 -89 178 -132 175 -112 215 -141 267 -197 35 -38 58 -54 90 -62 32 -7
48 -18 63 -43 15 -24 26 -31 42 -29 13 2 45 -2 73 -9 28 -7 57 -11 65 -8 7 3
20 -5 29 -19 9 -13 36 -38 61 -56 33 -24 46 -40 51 -66 7 -38 14 -40 80 -25
38 9 50 6 125 -29 46 -21 117 -47 157 -57 67 -17 72 -20 72 -46 0 -32 5 -36
56 -43 22 -3 56 -11 77 -17 34 -10 38 -15 34 -38 -5 -23 -1 -27 51 -42 38 -11
68 -29 91 -52 33 -34 34 -37 18 -54 -21 -23 -13 -32 26 -32 16 0 51 -11 78
-25 45 -22 51 -23 82 -10 33 14 35 13 63 -16 53 -56 131 -93 216 -104 47 -6
88 -22 110 -42 14 -13 20 -13 33 -3 16 14 45 7 45 -11 0 -6 -9 -13 -20 -16
-21 -6 -27 -28 -10 -38 6 -4 30 3 54 15 25 12 55 19 70 16 36 -7 47 18 30 66
-13 38 -13 38 8 27 11 -6 37 -8 59 -5 33 5 39 3 45 -16 5 -13 7 -44 5 -70 l-2
-46 51 -11 c28 -6 66 -11 84 -11 72 0 134 -36 156 -91 10 -24 17 -28 39 -24
26 5 195 6 240 1 25 -3 46 -30 36 -46 -4 -6 -14 -9 -23 -8 -26 5 -26 -29 0
-46 13 -8 39 -17 58 -21 79 -13 97 -18 141 -45 98 -60 243 -94 384 -92 198 3
200 3 250 -18 11 -4 35 -13 53 -20 17 -7 32 -16 32 -20 0 -13 -55 -28 -71 -20
-8 4 -32 11 -54 14 -34 6 -44 3 -59 -13 -16 -17 -17 -23 -6 -36 25 -30 65 -42
160 -49 120 -8 231 -22 335 -42 66 -13 83 -14 115 -9 73 13 101 67 41 81 -35
9 -51 23 -51 44 0 22 -55 50 -87 44 -33 -6 -60 11 -65 41 -3 14 -5 25 -4 25 0
0 50 -9 110 -19 60 -11 120 -17 135 -15 46 8 89 25 101 40 17 20 40 18 40 -4
0 -10 10 -28 23 -40 42 -40 96 -54 227 -62 84 -4 139 -13 168 -25 l44 -18 -46
-22 c-25 -12 -69 -47 -98 -77 l-53 -54 -187 2 c-104 1 -194 4 -201 7 -16 6
-65 -29 -55 -39 9 -8 1372 -13 1443 -5 40 5 51 10 53 26 2 17 9 20 37 17 28
-3 40 2 69 30 43 42 45 49 9 39 -16 -5 -37 -6 -48 -5 -61 11 -83 10 -114 -2
-18 -8 -48 -14 -65 -14 -20 0 -39 -9 -55 -25 -26 -28 -47 -30 -111 -11 -43 13
-46 12 -73 -10 -16 -13 -37 -24 -47 -24 -20 0 -50 25 -51 43 -5 69 -16 89 -51
91 -13 1 -41 12 -62 24 -32 19 -36 25 -25 38 38 46 164 77 219 54 38 -16 38
-30 1 -30 -16 0 -31 -6 -35 -15 -4 -12 5 -15 47 -15 61 0 83 -11 73 -35 -4
-12 -13 -15 -26 -11 -11 3 -29 9 -40 12 -16 5 -19 3 -14 -10 5 -13 -1 -16 -30
-16 -41 0 -53 -29 -13 -31 110 -6 146 -5 214 7 81 15 183 51 183 64 0 17 -32
19 -77 5 -61 -19 -93 -19 -93 -1 0 8 5 18 10 21 12 8 13 75 1 75 -4 0 -22 -5
-40 -11 -24 -8 -39 -8 -62 1 -27 12 -28 14 -14 30 9 10 28 16 48 15 31 -2 120
-30 142 -46 6 -3 25 -10 43 -14 37 -8 85 11 142 55 51 40 59 40 124 6 55 -28
68 -31 170 -33 61 -1 131 -4 156 -7 54 -7 148 24 243 79 85 50 97 56 116 61 9
2 34 8 56 13 22 5 60 13 84 16 25 4 63 16 85 27 33 17 62 21 180 23 186 4 173
1 439 99 120 44 140 45 176 5 28 -30 29 -30 59 -15 37 19 134 42 217 51 98 10
129 16 139 26 19 18 26 9 26 -33 0 -23 3 -38 7 -34 4 4 6 25 4 46 -2 35 1 41
23 50 28 10 69 0 81 -20 5 -8 13 -5 26 9 10 11 42 28 70 38 30 10 60 29 72 45
l20 27 17 -22 c17 -21 18 -21 59 -3 44 20 55 19 45 -7 -10 -26 -65 -55 -119
-62 -27 -4 -66 -14 -85 -23 -33 -15 -34 -16 -11 -20 14 -2 54 3 91 12 82 20
90 22 165 31 33 3 112 27 175 52 63 25 144 50 180 55 36 6 81 17 100 25 19 8
61 17 93 19 54 3 63 7 107 48 54 50 75 58 140 53 72 -6 123 9 254 72 130 63
231 101 267 101 21 0 122 47 163 76 11 8 28 14 37 14 10 0 27 11 38 25 18 23
20 37 10 70 -2 6 0 20 5 32 6 18 18 24 59 30 89 12 112 -1 79 -47 -27 -36 -30
-60 -4 -39 9 8 34 24 55 34 52 27 67 45 36 45 -52 0 -61 35 -16 59 73 39 107
67 107 87 0 26 66 64 120 70 75 7 113 26 179 89 l59 56 28 -27 29 -26 -22 -15
c-28 -19 -29 -39 -4 -53 31 -16 45 -12 62 18 11 19 34 35 72 50 65 25 144 73
221 136 54 43 129 78 199 91 46 9 63 29 70 83 6 51 35 87 83 102 18 6 49 31
69 55 40 50 144 116 220 141 62 21 81 37 95 80 8 25 26 42 68 68 33 20 71 54
89 80 21 30 50 54 85 72 29 15 73 40 98 57 49 33 140 121 140 136 0 18 76 84
118 102 24 10 58 19 76 19 29 0 33 4 42 37 8 32 17 41 64 64 30 15 105 63 165
107 61 45 138 95 173 112 63 31 64 31 48 55 -20 31 -20 35 2 35 43 0 198 117
189 143 -2 6 -16 12 -33 14 -46 7 -48 19 -3 22 57 3 104 24 125 56 16 24 19
25 29 11 10 -13 12 -12 13 12 0 15 10 48 21 73 17 39 27 48 54 53 41 8 87 51
112 105 13 30 27 43 52 52 19 6 59 34 90 62 30 29 62 56 69 60 9 5 12 17 8 30
-8 33 26 69 83 90 67 24 108 67 134 138 28 76 51 95 124 98 50 2 60 6 84 33
32 39 33 60 4 73 -35 15 -36 34 -3 71 16 19 39 52 50 73 28 55 47 71 85 71 40
0 49 11 50 64 1 33 8 45 46 79 24 21 44 42 45 46 0 3 6 33 14 66 8 33 14 65
14 70 1 6 10 10 21 10 49 1 64 14 63 56 0 32 6 47 30 72 42 45 80 110 87 148
14 79 53 127 95 116 13 -3 23 6 36 37 11 22 30 51 43 63 19 19 21 25 11 38 -9
11 -10 34 -5 80 7 65 7 66 50 86 33 15 44 27 49 50 4 22 15 34 40 44 42 18 52
31 36 50 -6 7 -12 28 -12 46 -1 25 7 40 35 66 39 35 45 51 25 71 -10 10 -5 15
18 24 26 9 31 17 32 47 4 100 53 224 126 320 32 42 33 46 19 68 -14 20 -13 26
8 60 12 21 46 67 74 103 55 70 105 149 105 168 0 7 -10 22 -21 33 -20 20 -20
23 -5 31 25 14 53 77 66 149 15 84 28 112 62 135 31 21 36 49 12 82 -12 18
-13 22 -1 22 31 0 54 44 56 112 1 10 11 18 27 20 36 4 53 31 37 57 -10 15 -9
22 1 30 7 6 23 33 36 60 15 33 33 55 53 65 30 14 30 16 28 79 -3 83 21 181 69
277 34 70 36 77 22 101 -14 24 -13 29 27 94 41 68 44 82 41 161 -2 47 17 72
61 81 16 3 30 8 30 12 1 3 3 16 4 27 3 33 16 49 26 33 8 -13 4 -204 -5 -248
-18 -81 -27 -266 -15 -296 6 -16 8 -14 8 11 1 18 12 69 26 115 14 46 27 89 29
94 1 6 19 62 39 125 51 157 64 233 47 265 -10 19 -11 33 -3 59 9 28 7 39 -8
63 -18 28 -18 28 7 51 17 17 23 29 18 41 -14 29 -12 105 3 135 11 20 13 44 9
80 -6 43 -4 55 14 74 19 20 20 24 5 51 -21 41 -19 49 13 76 26 22 27 28 26 99
0 58 -5 80 -19 96 -18 20 -18 20 6 20 23 0 26 6 36 63 6 34 14 76 18 92 16 59
10 123 -14 156 -20 27 -21 32 -8 47 8 9 27 43 42 75 14 31 30 57 35 57 5 0 3
17 -4 38 -11 29 -15 118 -7 153 0 4 14 5 31 3 26 -3 30 0 34 29 3 17 7 93 9
167 2 74 7 142 11 151 4 10 -1 19 -17 28 -32 17 -49 48 -52 95 -2 23 -4 58 -6
78 -3 33 2 43 51 94 30 31 66 61 80 66 l25 11 -36 14 c-34 14 -35 16 -33 64 1
28 -7 77 -17 109 -19 61 -19 141 1 165 8 10 7 16 -8 27 -50 36 -57 79 -21 136
12 19 10 24 -23 57 l-37 37 20 31 c27 46 24 80 -11 116 -17 16 -39 33 -50 36
-27 8 -25 19 4 33 24 11 25 13 20 99 -7 108 9 146 74 181 49 27 52 44 18 91
-25 34 -26 61 -5 88 8 9 9 17 3 21 -6 4 -10 23 -11 42 -1 76 -2 80 -37 96 -22
11 -34 23 -34 38 0 35 -23 138 -44 195 -19 49 -19 55 -4 63 9 5 16 20 16 33 0
26 -38 44 -81 38 -35 -5 -42 16 -24 68 20 56 19 85 -5 102 -17 12 -18 16 -6
33 26 38 26 68 0 124 -36 76 -39 138 -10 193 l23 43 -61 32 c-64 34 -136 92
-136 111 0 17 33 29 55 20 31 -12 45 -10 45 6 0 8 -6 24 -12 35 -9 14 -10 23
-3 28 6 4 11 21 11 37 1 17 5 56 9 88 4 31 3 57 -1 57 -5 0 -20 10 -34 23 -29
25 -55 81 -69 146 -8 37 -7 49 8 70 10 14 21 36 25 48 7 22 32 37 47 28 4 -3
11 -20 14 -38 7 -36 111 -154 118 -134 6 19 -17 106 -47 176 -29 67 -37 142
-22 194 7 22 5 27 -10 27 -29 0 -54 30 -70 88 -17 59 -17 59 10 64 14 2 19 -4
22 -27 4 -37 24 -75 38 -75 6 0 17 9 23 19 7 11 33 32 58 47 46 27 51 27 149
12 21 -3 30 11 17 30 -5 9 -31 14 -72 14 -35 1 -67 6 -71 12 -14 21 -8 34 23
47 l32 13 -24 9 c-13 5 -52 10 -85 10 -49 0 -67 -4 -89 -21 -15 -12 -33 -23
-39 -23 -6 -1 -22 -3 -36 -5 -42 -5 -71 5 -68 24 1 9 -8 32 -21 50 -26 37 -23
57 14 74 31 14 31 51 0 56 -36 7 -44 20 -32 55 5 18 11 38 13 45 2 6 17 12 34
12 31 0 37 7 63 82 5 14 11 16 31 9 20 -8 31 -4 63 19 42 33 74 38 93 15 7 -8
10 -15 7 -15 -3 0 1 -26 9 -57 7 -32 13 -77 14 -100 0 -41 2 -43 29 -43 45 0
64 -25 58 -78 -3 -32 -1 -45 10 -49 17 -7 83 22 83 36 0 6 17 22 37 36 21 14
32 25 26 25 -6 0 -36 24 -66 53 -84 82 -131 175 -141 281 -6 65 1 73 71 77
l51 4 6 -35 c4 -27 19 -47 61 -83 63 -55 102 -109 134 -187 13 -30 38 -75 56
-100 48 -66 72 -119 78 -172 3 -25 18 -65 32 -89 24 -37 128 -149 139 -149 3
0 -14 37 -36 81 -68 137 -82 208 -49 243 l22 23 -27 -1 c-23 -1 -29 5 -39 39
-6 23 -8 52 -4 68 7 25 5 30 -19 38 -27 9 -27 11 -26 82 1 39 -2 82 -7 94 -4
12 -30 34 -58 47 -49 25 -50 26 -40 58 6 18 13 40 16 49 6 21 -17 67 -53 102
-15 15 -25 29 -23 31 2 3 28 13 58 23 30 10 57 25 61 33 4 8 19 40 34 70 15
30 29 67 32 83 4 23 1 27 -18 27 -31 0 -82 32 -109 69 -21 29 -26 31 -85 29
-35 -1 -66 0 -69 3 -3 3 4 18 15 32 14 18 43 33 91 47 39 12 73 28 76 36 3 10
-10 31 -34 57 -58 60 -64 76 -47 116 21 49 18 58 -21 71 -45 15 -48 21 -35 69
14 53 6 67 -45 80 -34 9 -45 17 -53 40 -14 38 -47 59 -100 63 -50 4 -54 12
-10 24 46 14 58 42 44 109 -12 61 -27 75 -118 109 -51 19 -57 29 -33 63 14 20
13 26 -13 76 l-28 54 23 53 c29 66 30 113 3 140 -17 17 -31 20 -76 17 -30 -2
-57 -1 -59 4 -6 9 22 39 36 39 15 0 10 32 -7 45 -9 6 -17 28 -18 47 -1 25 -13
49 -35 75 -36 41 -71 106 -90 165 -8 24 -24 44 -46 56 -25 16 -44 42 -80 118
-33 70 -60 112 -96 146 -27 26 -49 56 -49 67 0 10 -16 42 -36 71 -20 29 -41
68 -48 89 -9 27 -23 41 -53 56 -48 23 -83 53 -230 195 -69 68 -150 133 -223
181 -66 44 -131 95 -152 121 -20 25 -59 62 -87 83 -27 21 -52 47 -55 59 -3 14
-21 27 -55 39 -27 9 -73 35 -103 58 -57 44 -109 69 -140 69 -17 0 -19 5 -13
38 4 26 2 42 -7 49 -17 14 -75 26 -117 25 -46 -2 -72 14 -67 41 2 14 10 21 20
20 53 -9 51 -10 49 35 -2 55 -34 105 -85 136 -36 22 -38 25 -19 31 31 10 26
35 -9 42 -30 5 -43 33 -16 33 21 0 30 19 16 35 -8 10 -18 11 -35 5 -15 -6 -29
-5 -41 4 -16 12 -16 15 -1 37 22 31 21 41 -6 72 -26 31 -37 33 -80 11 -43 -23
-98 -21 -184 6 -39 12 -80 21 -90 20 -42 -5 -51 1 -65 42 -7 23 -19 43 -26 46
-7 2 -12 0 -11 -5 6 -33 -2 -49 -23 -47 -13 1 -32 3 -44 3 -11 1 -30 10 -43
22 -17 16 -21 27 -16 50 6 24 0 35 -37 74 -25 26 -54 46 -68 47 -23 3 -25 0
-22 -29 4 -38 7 -37 -48 -18 -23 8 -57 15 -74 15 -24 0 -36 8 -56 37 -32 47
-115 113 -153 120 -21 4 -33 15 -43 39 -8 18 -33 46 -56 62 -24 17 -55 41 -70
55 -117 109 -188 151 -274 161 -123 14 -205 69 -252 169 -17 35 -37 69 -47 77
-9 7 -53 16 -101 20 -104 8 -124 22 -104 70 11 27 11 33 -1 41 -21 13 -26 11
-43 -12 -13 -20 -18 -21 -45 -9 -17 7 -37 24 -44 38 -6 14 -19 26 -27 28 -164
24 -305 77 -388 146 -35 29 -52 36 -76 33 -47 -6 -112 14 -139 44 -93 101 -78
92 -164 88 l-77 -5 -30 35 c-20 22 -46 38 -73 45 -37 9 -46 16 -63 54 -13 31
-25 44 -39 44 -34 0 -74 -22 -111 -62 -41 -42 -41 -42 -177 6 -81 28 -109 34
-170 35 -37 1 -43 4 -49 26 -7 27 -33 44 -99 65 -22 7 -53 25 -70 40 -35 32
-76 46 -162 55 -113 10 -312 87 -280 107 19 12 69 10 119 -6 45 -13 46 -13 57
10 8 19 6 28 -14 52 -26 31 -19 52 17 52 32 0 55 21 50 46 -2 13 0 25 4 25 65
9 112 6 149 -11 24 -11 67 -22 96 -25 30 -3 62 -8 72 -11 9 -3 31 -3 47 1 23
5 30 12 30 29 0 21 -6 24 -62 29 -35 4 -106 17 -158 31 -128 32 -175 40 -242
39 -54 0 -57 1 -47 19 6 11 8 26 5 34 -7 19 -56 15 -66 -6 -4 -8 -12 -25 -19
-38 -10 -19 -9 -23 6 -28 37 -12 59 -26 70 -43 10 -16 7 -18 -25 -16 -49 2
-70 13 -77 36 -6 19 -8 19 -30 -5 -22 -23 -24 -24 -61 -11 -22 8 -56 14 -76
15 -39 0 -88 -17 -88 -32 0 -21 -16 -4 -28 30 -28 79 -21 155 11 123 6 -6 23
-11 38 -11 32 0 63 -26 55 -46 -3 -8 -1 -14 4 -14 6 0 10 4 10 10 0 5 17 14
38 20 22 5 46 18 55 28 15 16 15 18 -1 19 -9 1 -46 11 -81 22 -73 24 -106 26
-141 8 -22 -11 -25 -18 -22 -60 2 -26 0 -48 -5 -48 -36 -6 -102 -5 -120 2 -25
9 -57 64 -49 84 3 10 18 13 48 10 29 -3 38 -1 28 5 -8 5 -27 10 -42 10 -40 0
-52 29 -22 53 30 23 74 12 89 -21 9 -21 35 -31 35 -14 0 16 -63 62 -85 62 -13
0 -27 5 -31 11 -4 7 -9 7 -13 2 -3 -5 -31 -29 -61 -52 -77 -61 -86 -76 -58
-95 12 -9 28 -16 34 -16 15 0 39 -29 31 -37 -10 -9 -127 -10 -187 0 -30 4
-104 29 -165 54 -60 25 -145 53 -189 63 -91 20 -110 37 -83 74 18 24 96 25
113 1 9 -12 21 -15 48 -10 39 8 44 18 20 42 -12 13 -20 13 -40 4 -24 -10 -25
-10 -19 11 16 52 32 57 148 43 70 -8 80 -2 58 35 -7 10 -2 19 19 31 38 23 47
55 24 80 -15 17 -16 24 -6 40 11 17 9 21 -15 31 -27 12 -142 16 -245 8 -60 -4
-62 -21 -13 -80 37 -44 39 -49 29 -74 -8 -22 -23 -20 -51 6 -20 19 -25 20 -33
8 -14 -22 -13 -24 25 -70 19 -23 35 -43 35 -45 0 -2 -30 10 -66 26 -69 32
-328 95 -424 105 -135 13 -149 15 -219 34 -24 6 -87 20 -140 30 -53 11 -105
21 -116 24 -37 8 -110 39 -133 57 -18 14 -29 15 -55 8 -55 -16 -158 -11 -237
10 -99 28 -149 39 -196 46 -38 5 -201 6 -296 1 -60 -4 -101 14 -124 53 -10 17
-22 31 -26 31 -17 0 -19 -29 -3 -53 15 -24 15 -26 -2 -34 -10 -5 -22 -9 -28
-8 -5 1 -30 6 -55 11 -25 4 -47 8 -50 7 -43 -10 -105 -14 -195 -13 -60 1 -147
1 -193 1 -81 -2 -84 -1 -113 30 -33 35 -35 46 -14 73 29 38 17 46 -28 18z
m-2073 -246 c-7 -19 -82 -71 -123 -84 -56 -20 -73 -16 -69 15 5 40 47 65 125
73 37 4 69 8 70 9 1 0 0 -5 -3 -13z m2517 -3 c4 -64 -9 -72 -88 -56 -106 22
-104 31 12 48 22 3 44 10 49 15 15 15 26 12 27 -7z m-2777 -114 c35 -42 33
-53 -14 -72 l-41 -16 -16 33 c-15 32 -14 35 3 60 25 33 37 32 68 -5z m4667
-98 c86 1 94 0 110 -22 22 -29 19 -44 -7 -44 -80 3 -256 44 -279 67 -7 6 -4
14 9 23 17 13 22 12 47 -6 23 -16 43 -19 120 -18z m1401 -375 c26 -7 68 -13
95 -13 41 0 48 -3 51 -20 2 -11 -5 -29 -15 -41 -16 -20 -22 -21 -53 -12 -19 6
-81 11 -136 10 -109 0 -114 2 -114 56 0 43 70 51 172 20z m1204 -617 c19 -11
34 -23 34 -26 0 -10 -124 4 -153 18 -26 12 -27 14 -10 20 36 15 96 9 129 -12z
m-10980 -959 c6 -6 36 -11 67 -11 l57 -1 -86 -69 c-85 -68 -130 -89 -189 -89
-23 0 -36 -8 -54 -35 -22 -33 -23 -37 -8 -53 15 -17 14 -21 -19 -55 -19 -20
-45 -39 -57 -43 -29 -9 -38 -24 -26 -46 8 -14 6 -18 -9 -18 -10 0 -33 -16 -52
-35 -18 -19 -57 -46 -86 -60 -35 -17 -72 -48 -106 -88 -121 -140 -170 -181
-218 -182 -8 0 -15 -8 -15 -17 0 -23 -11 -33 -75 -65 -39 -20 -56 -35 -58 -50
-4 -27 -6 -28 -36 -8 -21 14 -25 13 -51 -9 -16 -14 -52 -30 -79 -37 -28 -6
-66 -18 -84 -25 -28 -11 -34 -11 -38 1 -8 20 15 57 32 51 7 -3 33 1 56 8 24 7
49 11 56 8 7 -2 12 5 12 17 0 11 23 46 51 77 43 47 49 60 44 84 -5 23 0 32 31
59 21 17 61 41 89 55 28 13 64 40 80 60 24 30 35 36 67 36 32 0 45 8 93 55 56
54 80 64 114 46 23 -13 107 41 115 74 4 15 11 22 20 19 7 -3 32 11 55 31 24
19 50 35 58 35 10 0 13 5 8 18 -18 43 -15 51 45 121 53 61 160 151 180 151 3
0 11 -5 16 -10z m4679 -333 c34 -20 45 -22 68 -12 17 7 48 9 80 4 60 -8 268
-5 408 6 76 6 107 4 145 -8 38 -12 115 -17 339 -22 160 -3 308 -8 329 -10 50
-5 107 -14 126 -20 42 -12 73 -12 112 -1 49 15 96 6 122 -22 13 -15 24 -18 54
-12 20 3 48 5 62 5 47 -3 133 -15 140 -20 4 -3 59 -7 121 -10 146 -8 165 -11
218 -40 60 -34 111 -47 236 -60 111 -12 130 -17 245 -63 115 -46 194 -63 286
-61 74 1 89 -2 159 -34 51 -23 89 -34 108 -31 22 2 34 -2 44 -16 20 -28 61
-46 109 -49 82 -4 105 -11 226 -72 105 -53 123 -57 148 -34 16 14 19 10 44
-45 23 -50 26 -66 18 -90 -12 -33 -2 -40 51 -40 39 0 52 8 61 38 10 29 20 28
113 -12 92 -39 131 -49 190 -48 44 1 56 -10 27 -26 -13 -7 -13 -10 -1 -20 20
-17 95 -42 110 -36 12 4 56 -30 134 -103 23 -21 31 -36 27 -48 -6 -15 -1 -17
39 -13 63 7 77 -4 77 -57 0 -48 2 -49 63 -45 21 1 27 -3 27 -18 0 -11 16 -41
35 -67 20 -25 36 -55 38 -67 1 -17 17 -27 67 -46 36 -14 84 -26 107 -27 27 -2
52 -11 71 -27 33 -27 60 -39 144 -62 31 -9 64 -23 72 -32 19 -18 22 -94 5
-111 -8 -8 -3 -29 20 -77 17 -36 31 -70 31 -76 0 -5 16 -40 36 -77 37 -71 86
-129 116 -139 10 -3 23 -23 29 -45 7 -21 16 -40 21 -40 4 -1 16 -2 25 -3 12
-1 24 -20 38 -61 22 -65 69 -145 85 -145 15 0 30 44 23 68 -3 14 3 25 22 38
19 12 25 24 22 40 -3 19 2 24 42 34 25 7 54 14 64 17 15 4 12 -7 -16 -61 -34
-64 -38 -90 -22 -143 7 -22 -3 -29 -60 -37 -37 -5 -26 -27 24 -49 41 -17 51
-26 49 -42 -2 -15 -9 -19 -30 -17 -47 6 -52 -9 -10 -28 61 -27 172 -120 172
-143 0 -11 10 -39 22 -63 17 -35 26 -43 42 -39 12 3 54 6 95 7 65 3 74 1 77
-16 4 -28 41 -63 93 -86 25 -12 55 -30 66 -41 13 -11 32 -17 50 -15 17 1 45
-3 64 -11 18 -7 49 -13 68 -13 32 0 36 4 55 50 12 29 27 50 37 51 28 2 64 -3
85 -11 19 -7 17 -12 -31 -59 -58 -56 -64 -72 -31 -95 19 -14 19 -16 5 -22 -39
-15 -17 -40 72 -82 81 -38 92 -46 127 -101 38 -59 66 -81 104 -81 24 0 33 -15
25 -40 -8 -25 -19 -25 -78 4 -44 22 -81 24 -92 7 -2 -4 9 -24 26 -44 25 -30
28 -40 19 -57 -6 -11 -9 -24 -6 -28 3 -5 35 -24 73 -43 61 -31 74 -34 156 -34
75 0 92 -3 101 -18 9 -15 4 -23 -31 -53 -48 -40 -52 -53 -23 -79 18 -17 21
-17 68 0 48 18 82 16 82 -4 0 -5 -11 -22 -23 -38 -28 -33 -72 -110 -81 -139
-5 -17 9 -38 64 -99 84 -92 99 -133 96 -255 -2 -67 -7 -93 -25 -124 -34 -59
-26 -92 39 -152 30 -29 64 -54 75 -56 20 -4 22 -14 10 -54 -6 -21 -5 -21 37
-13 23 4 71 8 106 9 72 0 72 -1 77 -87 1 -32 3 -65 4 -74 1 -10 46 -35 134
-73 180 -77 178 -75 181 -167 4 -117 48 -186 152 -235 43 -21 54 -33 73 -75
13 -27 28 -55 35 -62 7 -6 28 -33 48 -59 29 -38 35 -54 32 -84 -2 -27 2 -41
17 -53 22 -18 41 -75 29 -87 -21 -22 -43 -118 -46 -199 -3 -70 1 -109 18 -169
l21 -77 -26 -27 c-14 -15 -29 -43 -34 -62 -5 -19 -16 -35 -24 -36 -38 -3 -46
-7 -80 -38 -29 -27 -36 -40 -32 -60 5 -23 10 -26 43 -26 21 0 56 7 79 15 45
15 42 18 53 -46 3 -14 14 -12 77 19 l74 36 33 -38 c44 -51 64 -96 64 -145 0
-27 10 -59 29 -94 27 -48 48 -108 57 -167 14 -85 37 -189 49 -217 12 -28 12
-35 -1 -48 -14 -14 -19 -13 -45 6 -19 13 -36 18 -50 14 -35 -11 -19 -87 30
-145 79 -93 223 -183 313 -195 79 -11 88 -15 88 -34 0 -11 9 -57 20 -103 29
-124 16 -189 -50 -240 -29 -23 -30 -25 -13 -41 10 -10 26 -23 35 -30 27 -19
12 -51 -33 -71 -21 -10 -39 -21 -39 -26 0 -4 -9 -10 -20 -13 -37 -10 -18 -98
20 -91 8 2 28 6 45 9 16 3 38 4 50 1 19 -5 20 -12 21 -273 1 -251 2 -272 24
-336 17 -54 21 -82 16 -128 -3 -33 -7 -63 -10 -67 -5 -8 -19 -106 -20 -142 -1
-32 -12 -40 -61 -40 -63 0 -90 -19 -92 -63 0 -20 3 -40 8 -43 5 -3 26 9 45 26
51 44 69 37 68 -25 0 -28 -4 -75 -7 -105 -4 -30 -10 -75 -13 -100 -14 -121
-59 -295 -93 -358 -9 -18 -16 -19 -43 -11 -76 21 -138 4 -138 -40 0 -38 96
-55 139 -25 l24 17 -7 -59 c-7 -62 -14 -109 -21 -134 -4 -15 -18 -133 -18
-157 0 -9 -14 -11 -52 -7 -38 5 -54 3 -63 -9 -16 -19 -5 -47 18 -47 11 0 21
-4 25 -9 11 -19 -189 -250 -217 -251 -19 0 -6 -20 17 -26 25 -6 119 40 145 71
27 32 28 12 4 -52 -19 -51 -24 -79 -20 -113 5 -41 3 -46 -22 -61 -30 -17 -139
-188 -192 -300 -32 -67 -29 -88 13 -110 12 -6 24 -13 25 -15 2 -1 -8 -23 -23
-49 -20 -33 -29 -65 -33 -113 -4 -47 -15 -87 -39 -137 -18 -38 -33 -77 -33
-86 0 -12 -12 -18 -41 -23 -37 -6 -42 -11 -61 -56 -23 -56 -30 -56 -93 -3 -22
19 -52 37 -67 40 -37 7 -35 27 5 47 l32 17 -34 -5 c-25 -3 -38 0 -48 12 -12
16 -12 16 -13 0 0 -10 -3 -18 -6 -18 -15 0 -64 43 -64 55 0 8 -10 20 -22 26
-22 12 -22 12 -5 -12 9 -13 21 -34 27 -46 5 -12 22 -25 37 -29 42 -10 56 -24
42 -40 -6 -8 -17 -14 -23 -14 -30 -1 -39 -18 -27 -47 14 -35 55 -61 107 -68
54 -8 124 -26 125 -34 1 -3 3 -29 4 -57 3 -44 0 -55 -20 -72 -13 -11 -26 -34
-30 -50 -3 -17 -17 -42 -31 -55 -19 -19 -23 -31 -19 -50 5 -19 -2 -39 -27 -79
-19 -29 -60 -102 -92 -163 -32 -60 -79 -148 -104 -195 -118 -224 -235 -398
-342 -509 -32 -33 -48 -57 -42 -63 6 -6 -12 -31 -47 -67 -31 -32 -71 -87 -90
-123 -18 -37 -53 -92 -77 -125 -24 -32 -57 -83 -72 -113 -25 -49 -33 -55 -68
-62 -48 -10 -103 -53 -145 -114 -36 -53 -33 -71 13 -76 49 -5 41 -28 -22 -65
-83 -47 -108 -70 -115 -103 -4 -17 -11 -30 -17 -30 -5 0 -31 -22 -56 -49 -26
-26 -58 -54 -71 -61 -33 -17 -92 -15 -106 4 -13 18 -25 11 -25 -14 0 -9 -11
-27 -24 -39 l-23 -22 -47 40 c-26 23 -50 41 -54 41 -4 0 2 -7 13 -16 11 -8 21
-27 21 -42 3 -42 3 -42 23 -42 10 0 34 -13 54 -28 l36 -29 -43 -54 c-40 -51
-79 -89 -122 -116 -18 -12 -18 -13 9 -34 l27 -21 -20 -28 c-11 -15 -20 -33
-20 -38 0 -6 -26 -25 -57 -43 -61 -35 -178 -126 -290 -226 -38 -34 -98 -85
-133 -113 l-64 -52 -9 25 c-13 40 -33 39 -82 -3 -39 -34 -49 -38 -65 -28 -14
9 -17 19 -13 42 4 17 13 36 22 43 9 6 13 14 9 18 -10 10 -48 -36 -48 -59 0
-11 -5 -35 -12 -53 -11 -31 -10 -35 17 -60 l29 -27 -35 -14 c-41 -17 -80 -18
-110 -1 -22 11 -22 12 16 43 24 20 35 37 31 45 -11 16 -73 -68 -93 -124 -22
-66 -64 -70 -111 -10 -23 29 -26 25 -37 -49 -3 -21 -7 -42 -10 -46 -3 -5 3 -6
13 -3 10 2 30 -1 45 -6 l28 -11 -36 -47 c-20 -27 -44 -51 -53 -55 -33 -13 -51
-8 -54 14 -2 16 -10 22 -29 23 -36 2 -49 13 -49 41 0 22 4 24 51 24 l51 0 -30
25 c-26 22 -34 24 -56 14 -20 -10 -30 -9 -51 5 -24 16 -25 15 -25 -2 0 -10 5
-23 12 -30 17 -17 -10 -42 -53 -51 -33 -7 -34 -8 -31 -53 4 -49 -10 -84 -52
-132 -14 -16 -26 -31 -26 -32 0 -5 33 8 46 17 6 5 19 3 29 -5 17 -12 16 -14
-11 -43 -16 -17 -76 -55 -134 -84 -58 -29 -145 -78 -195 -109 -81 -50 -121
-73 -305 -173 -30 -16 -94 -56 -142 -88 -63 -42 -116 -68 -195 -94 -59 -20
-115 -43 -124 -51 -13 -12 -33 -14 -94 -8 -87 8 -95 3 -95 -56 0 -39 -6 -43
-115 -70 -27 -7 -67 -26 -88 -42 -20 -16 -45 -31 -55 -33 -9 -2 -102 -33 -207
-68 -326 -111 -730 -233 -835 -252 -46 -9 -65 -13 -120 -27 -85 -22 -105 -19
-105 16 -1 35 -28 57 -46 39 -10 -10 -9 -17 5 -32 10 -11 16 -27 13 -35 -12
-30 -126 -46 -217 -31 -32 5 -40 4 -40 -9 0 -22 -13 -26 -33 -12 -16 12 -16
15 0 47 9 19 27 43 41 55 29 24 25 62 -6 48 -9 -4 -30 -7 -45 -7 -18 0 -25 -3
-18 -10 10 -10 3 -38 -13 -49 -5 -3 -22 0 -37 8 -37 19 -62 17 -26 -2 15 -8
27 -17 27 -19 0 -15 -52 -93 -73 -109 -30 -22 -131 -23 -166 -1 -5 3 -33 -3
-63 -14 -72 -26 -92 -30 -189 -36 -46 -3 -109 -8 -139 -10 -75 -7 -289 -44
-320 -56 -24 -9 -81 -13 -328 -24 -58 -2 -110 -9 -118 -16 -11 -9 -22 -8 -47
5 -19 8 -64 17 -100 18 -66 3 -66 3 -44 20 12 10 25 18 29 18 4 0 28 15 54 33
35 24 42 33 28 36 -11 2 -27 -8 -39 -23 -19 -24 -22 -25 -47 -12 -26 14 -28
13 -57 -33 l-31 -47 -115 2 c-106 1 -241 10 -296 19 -37 5 -109 14 -164 20
-27 3 -57 8 -65 10 -8 2 -28 6 -45 9 -16 3 -73 12 -125 21 -52 9 -106 18 -120
20 -14 2 -77 12 -140 24 -63 11 -140 23 -170 26 -30 4 -84 15 -119 26 -61 18
-101 28 -146 33 -35 5 -123 34 -210 71 -16 7 -76 28 -133 46 -101 33 -104 34
-100 61 5 32 2 34 -19 13 -8 -8 -18 -13 -22 -11 -4 3 -30 8 -57 11 -102 12
-122 18 -254 80 -125 58 -217 86 -340 103 -19 2 -50 18 -69 34 -39 34 -63 45
-146 62 -86 18 -136 44 -149 78 -8 22 -17 28 -41 28 -17 0 -72 20 -123 45 -51
25 -109 48 -129 51 -22 3 -47 16 -58 29 -24 27 -54 43 -155 85 -41 17 -118 55
-170 84 -52 30 -112 56 -132 60 -43 8 -61 31 -47 58 7 14 6 20 -6 24 -12 5
-14 14 -10 34 8 34 -10 48 -25 20 -12 -22 -49 -27 -81 -10 -26 14 -24 36 6 62
29 25 33 48 8 49 -21 1 -58 7 -91 14 -17 4 -25 -1 -34 -20 -14 -30 -50 -33
-89 -7 -81 54 -97 62 -125 62 -25 0 -33 6 -45 33 -11 24 -30 40 -85 67 -131
65 -261 185 -239 221 4 5 0 9 -7 10 -40 2 -76 12 -100 27 -48 31 -117 102
-112 116 3 9 -15 21 -56 36 -94 35 -165 107 -199 201 -7 18 -19 28 -41 33 -45
8 -85 40 -131 102 -23 32 -57 63 -82 75 -83 42 -125 77 -132 110 -4 19 -34 60
-75 103 -149 158 -190 206 -190 226 0 11 4 20 8 20 5 0 17 7 28 15 18 15 18
15 -7 9 -51 -11 -155 61 -189 132 -12 25 -42 68 -66 97 -25 28 -50 68 -56 89
-7 24 -24 46 -48 63 -20 14 -57 54 -83 89 -46 63 -103 120 -127 128 -8 2 -12
22 -12 54 1 46 -1 50 -29 63 -27 12 -126 89 -117 92 2 0 19 3 38 6 42 5 80 28
80 47 0 18 -58 48 -74 39 -6 -3 -20 -14 -31 -24 -20 -17 -21 -16 -73 44 -37
44 -54 73 -59 102 -5 31 -20 55 -67 105 -58 61 -110 121 -146 166 -20 25 -136
198 -141 210 -2 5 -42 72 -88 149 -46 77 -100 173 -118 213 -41 89 -36 102 41
102 54 0 76 -12 76 -41 0 -10 5 -21 11 -25 8 -4 9 1 3 17 -4 13 -7 32 -6 42 0
13 -7 17 -31 18 -47 1 -77 8 -110 24 -30 15 -30 15 -12 -5 16 -18 17 -22 4
-34 -10 -10 -21 -11 -37 -5 -23 9 -37 35 -45 85 -2 16 -18 63 -35 104 -16 41
-49 121 -71 177 -23 56 -45 129 -49 162 -8 54 -6 63 14 88 23 29 22 44 -5 79
-14 18 -18 19 -30 7 -25 -28 -62 29 -74 117 -4 25 -9 56 -13 70 -3 14 -8 36
-11 50 -4 14 -24 68 -46 120 -21 52 -42 120 -46 150 -4 38 -15 67 -33 90 -22
28 -24 37 -15 57 11 25 15 27 36 14 8 -5 12 -18 9 -28 -3 -11 1 -31 9 -44 13
-24 13 -24 11 9 -2 18 3 36 10 41 9 6 8 12 -7 25 -15 14 -18 23 -11 36 8 16 3
21 -38 35 -26 10 -53 19 -60 21 -9 3 -11 18 -8 51 3 33 -4 74 -25 140 -22 74
-29 117 -32 210 -4 111 -6 123 -40 197 -35 74 -37 85 -36 170 1 77 -3 107 -30
191 -25 79 -33 123 -37 210 -8 190 -12 228 -33 292 -23 73 -20 118 14 188 23
49 24 53 10 105 -18 68 -19 131 -2 173 7 18 12 37 12 42 -1 6 -5 37 -10 70 -5
33 -7 96 -5 140 1 44 2 133 2 198 -1 64 3 128 8 142 18 48 22 158 7 208 -24
78 -17 155 19 214 24 39 29 54 22 73 -11 30 -4 73 27 163 19 54 27 98 29 177
2 58 11 134 19 170 15 64 21 101 32 190 8 70 14 100 34 165 10 33 25 85 32
115 15 65 16 68 18 78 0 4 16 16 34 26 104 60 169 231 133 351 -15 49 -15 52
14 125 16 41 35 95 42 120 l13 45 55 -3 c30 -2 67 1 82 7 36 13 46 52 23 87
-13 21 -22 25 -45 21 -15 -4 -30 -3 -33 0 -8 7 9 39 45 85 24 30 27 41 19 57
-20 37 -12 63 35 107 l47 43 -7 59 c-6 55 -5 61 25 103 18 24 35 46 39 49 13
10 70 133 70 152 0 21 4 22 33 6 22 -11 86 -13 119 -3 14 5 11 12 -20 44 -32
34 -40 37 -60 28 -33 -15 -50 4 -30 35 8 13 42 75 76 138 33 63 86 162 117
220 30 58 65 124 77 148 12 23 27 42 34 42 22 0 110 53 137 84 16 17 42 56 58
86 16 30 41 70 54 89 14 19 34 66 46 105 27 93 60 148 108 183 43 30 111 125
111 154 0 10 4 20 8 23 4 3 14 28 22 57 11 41 22 56 51 75 48 30 78 73 84 120
3 23 16 50 33 68 62 67 121 133 153 171 46 55 69 70 103 70 27 0 34 7 72 83
80 157 165 243 280 283 58 19 124 71 124 95 0 18 56 58 123 88 43 19 57 30 57
45 0 16 6 21 28 21 40 0 72 33 146 147 80 125 102 145 196 184 93 39 98 43
122 99 34 78 64 107 241 226 95 63 197 133 227 154 30 21 66 42 80 45 34 9 50
24 50 46 0 12 7 19 20 19 34 0 81 24 155 79 92 69 93 69 148 130 26 29 64 60
85 69 20 9 80 44 132 76 52 32 137 81 190 109 52 27 122 67 155 87 33 21 85
46 115 55 92 30 132 48 208 94 85 50 147 76 241 97 38 9 77 25 91 38 36 33 80
54 315 150 244 99 385 146 516 175 104 22 128 25 308 46 80 10 195 42 270 76
114 53 156 62 311 65 82 2 169 10 200 18 74 19 70 19 115 -7z m9099 -165 c7
-26 14 -32 37 -32 36 0 43 -13 19 -35 -24 -22 -25 -38 -4 -70 14 -22 14 -25 1
-25 -22 0 -65 38 -83 73 -16 30 -21 97 -9 117 11 18 29 5 39 -28z m320 -202
c34 -45 37 -54 28 -75 -14 -31 -24 -31 -103 1 -35 15 -82 27 -105 27 -37 1
-43 5 -63 39 -26 45 -14 49 44 13 51 -32 59 -31 91 4 15 17 36 32 48 34 11 2
21 5 21 6 1 0 18 -22 39 -49z m-15392 -270 c-3 -8 -12 -25 -19 -37 -12 -19
-18 -20 -50 -11 -31 8 -40 7 -65 -12 -29 -21 -29 -21 -19 -2 6 12 11 30 11 41
0 24 33 36 99 36 39 0 47 -3 43 -15z m-212 -288 c0 -14 -66 -73 -73 -66 -4 4
-7 22 -7 41 0 32 1 33 40 33 22 0 40 -4 40 -8z m16165 -520 c6 -4 22 -30 37
-58 27 -49 27 -52 10 -68 -22 -19 -68 -21 -75 -3 -3 7 1 21 9 32 8 10 14 25
14 33 0 14 -3 13 -46 -5 -7 -3 -13 11 -16 36 -3 40 -3 41 27 41 16 0 35 -4 40
-8z m-16744 -60 c-16 -30 -14 -32 18 -32 48 0 46 -19 -5 -40 -44 -19 -47 -20
-60 -3 -20 27 -17 41 18 73 35 32 46 33 29 2z m12600 -548 c22 -23 23 -26 6
-35 -9 -6 -17 -19 -17 -31 0 -14 -5 -18 -16 -14 -9 3 -19 6 -24 6 -15 0 -17
37 -4 69 16 38 23 38 55 5z m486 -437 c1 -12 5 -34 8 -49 4 -23 1 -28 -15 -28
-11 0 -28 10 -38 21 -9 12 -22 27 -29 34 -14 15 -3 28 38 43 28 11 32 9 36
-21z m4366 -437 c14 -12 24 -27 21 -34 -8 -21 -51 -36 -101 -36 -44 0 -45 1
-38 28 15 62 69 81 118 42z m406 -115 c61 -21 151 -84 145 -100 -3 -7 -19 -19
-35 -25 -16 -7 -36 -22 -44 -34 -15 -20 -16 -19 -66 29 -46 46 -109 125 -109
139 0 11 68 6 109 -9z m-184 -55 c77 -33 106 -80 70 -110 -12 -10 -18 -8 -34
11 -16 20 -21 21 -35 10 -9 -7 -16 -20 -16 -27 0 -8 -4 -14 -10 -14 -5 0 -10
4 -10 10 0 12 -63 44 -105 54 -41 10 -95 45 -95 61 0 17 89 33 150 27 25 -2
63 -12 85 -22z m205 -205 c12 -15 7 -45 -7 -45 -16 0 -30 15 -37 38 -6 18 -3
22 12 22 11 0 25 -7 32 -15z m134 -24 c19 -21 19 -21 -5 -21 -30 0 -49 17 -49
42 0 15 4 17 18 9 9 -5 26 -19 36 -30z m-20520 -3314 c-4 -45 -33 -88 -35 -52
-2 34 3 68 13 94 13 36 26 11 22 -42z m-68 -207 c-27 -65 -50 -77 -66 -34 -14
35 -14 33 22 49 24 9 35 10 40 2 4 -6 6 -14 4 -17z m-63 -114 c38 6 40 5 24
-11 -9 -9 -17 -26 -17 -38 0 -41 -14 -51 -54 -37 -19 6 -38 15 -41 20 -3 5 0
30 6 55 11 44 12 45 26 25 13 -18 21 -20 56 -14z m18365 -28 c0 -7 4 -23 7
-35 6 -20 4 -23 -18 -23 -34 0 -52 23 -37 49 12 23 46 29 48 9z m-18397 -246
c-10 -21 -9 -27 3 -34 31 -17 46 -40 41 -61 -2 -12 -16 -67 -30 -122 -14 -55
-25 -119 -25 -141 0 -23 -3 -56 -6 -73 -7 -32 -7 -32 -33 -14 -59 38 -65 61
-39 148 18 59 18 58 18 90 0 15 11 36 27 51 27 25 27 26 8 40 -10 8 -22 14
-26 14 -13 0 -19 33 -13 67 3 18 20 48 36 65 27 30 31 31 40 14 7 -13 7 -26
-1 -44z m-392 -470 c28 -55 54 -74 100 -74 l39 1 -4 -37 c-3 -20 -6 -46 -9
-57 -2 -11 -4 -28 -4 -39 -1 -15 -4 -16 -16 -6 -10 8 -13 23 -9 51 l6 39 -59
-6 c-39 -4 -68 -2 -82 6 -21 11 -22 17 -18 73 9 105 22 117 56 49z m133 -297
c14 -18 8 -35 -11 -35 -26 0 -44 23 -29 38 13 13 30 12 40 -3z m199 -318 c-1
-12 -15 -9 -19 4 -3 6 1 10 8 8 6 -3 11 -8 11 -12z m-23 -124 c-10 -13 -48
-18 -48 -8 0 4 7 20 16 37 l16 32 13 -25 c9 -17 10 -28 3 -36z m101 -62 c9
-15 8 -128 -1 -136 -2 -2 -18 7 -36 21 l-32 26 21 29 c14 19 20 40 17 58 -5
32 15 33 31 2z m-91 -22 c4 -34 -20 -54 -47 -39 -25 13 -26 27 -4 52 23 25 47
19 51 -13z m84 -179 c-4 -30 -16 -39 -27 -20 -7 11 12 50 24 50 4 0 6 -13 3
-30z m82 -1169 c4 -5 0 -38 -8 -73 -8 -34 -17 -85 -21 -113 -6 -52 -15 -72
-15 -39 -1 10 -4 44 -7 74 -6 57 -7 72 -4 128 1 27 5 32 25 32 14 0 27 -4 30
-9z m323 -1908 c-4 -3 2 -20 13 -38 28 -45 31 -98 6 -103 -16 -3 -18 0 -13 27
5 23 2 34 -12 43 -17 12 -19 32 -7 64 3 8 9 14 12 14 4 0 4 -3 1 -7z m169
-110 c11 -27 18 -56 16 -66 -3 -16 -6 -15 -28 8 -26 29 -39 67 -30 90 10 26
21 17 42 -32z m92 -660 l3 -37 -20 25 c-19 25 -24 41 -22 68 2 30 37 -18 39
-56z m175 -108 c32 -29 71 -57 88 -60 l31 -7 -24 -25 c-53 -57 -111 -65 -140
-21 -18 29 -43 142 -34 157 11 17 17 14 79 -44z m-110 -65 c7 -38 -4 -38 -26
-1 -17 30 -23 72 -10 84 8 9 30 -41 36 -83z m14687 -1970 c0 -22 -7 -25 -29
-11 -16 10 -6 31 15 31 8 0 14 -9 14 -20z m264 -2669 c-21 -16 -56 -32 -77
-35 -26 -4 -49 -18 -72 -42 -37 -39 -68 -42 -73 -8 -5 32 159 110 237 113 23
1 21 -2 -15 -28z m-3029 -1070 c12 -21 -78 -47 -119 -35 -16 5 -12 10 20 25
42 20 89 25 99 10z m-3221 -632 c-3 -5 -10 -7 -15 -3 -5 3 -7 10 -3 15 3 5 10
7 15 3 5 -3 7 -10 3 -15z"/>
<path d="M18050 26698 l-20 -33 41 -3 c50 -4 55 1 43 36 -14 39 -40 39 -64 0z"/>
<path d="M14211 26696 c-24 -13 -24 -14 -4 -25 18 -9 21 -7 25 14 3 14 5 25 4
25 0 -1 -12 -7 -25 -14z"/>
<path d="M13007 26469 c7 -7 15 -10 18 -7 3 3 -2 9 -12 12 -14 6 -15 5 -6 -5z"/>
<path d="M18084 26215 c-8 -31 1 -56 18 -50 7 2 26 7 42 9 39 7 39 8 10 39
-32 34 -62 35 -70 2z"/>
<path d="M18356 26224 c-12 -31 -7 -52 12 -49 9 2 25 4 35 4 20 1 23 31 5 49
-17 17 -45 15 -52 -4z"/>
<path d="M19253 25758 c-12 -6 -24 -17 -27 -25 -5 -12 25 4 63 34 9 7 -15 1
-36 -9z"/>
<path d="M18947 25458 c-5 -15 10 -48 21 -48 13 0 11 38 -3 50 -10 8 -14 8
-18 -2z"/>
<path d="M20054 25380 c-45 -19 -55 -34 -44 -64 10 -28 48 -30 87 -4 36 25 40
33 19 41 -8 3 -16 14 -18 25 -3 19 -4 19 -44 2z"/>
<path d="M20330 25248 c0 -16 19 -38 33 -38 4 0 7 10 5 22 -3 25 -38 39 -38
16z"/>
<path d="M8997 24073 c-15 -15 -5 -23 27 -23 19 0 37 4 40 9 10 16 -52 29 -67
14z"/>
<path d="M8646 23565 c-9 -9 -13 -22 -9 -28 4 -7 8 -6 11 3 3 8 10 18 16 22 6
4 8 10 4 13 -3 3 -13 -1 -22 -10z"/>
<path d="M22370 22710 c0 -5 7 -10 15 -10 8 0 20 -9 27 -20 12 -19 48 -27 61
-14 3 4 2 15 -4 26 -8 15 -17 18 -39 13 -16 -3 -31 -2 -35 4 -8 14 -25 14 -25
1z"/>
<path d="M23014 21079 c-3 -6 -8 -35 -11 -65 -6 -60 12 -94 49 -94 18 0 23 18
20 80 -3 54 -41 106 -58 79z"/>
<path d="M7570 20675 c0 -15 4 -24 10 -20 6 3 10 12 10 20 0 8 -4 17 -10 20
-6 4 -10 -5 -10 -20z"/>
<path d="M22885 20509 c5 -7 1 -17 -10 -26 -15 -10 -15 -13 -4 -13 8 0 24 6
34 14 18 13 18 14 -4 26 -19 10 -22 9 -16 -1z"/>
<path d="M7357 20243 c-4 -3 -7 -16 -7 -27 1 -21 1 -21 15 -2 8 11 15 23 15
28 0 10 -14 11 -23 1z"/>
<path d="M7530 19795 c0 -8 7 -15 16 -15 14 0 14 3 4 15 -7 8 -14 15 -16 15
-2 0 -4 -7 -4 -15z"/>
<path d="M15368 19792 c-16 -10 -28 -20 -28 -23 0 -9 69 24 70 34 0 10 -11 7
-42 -11z"/>
<path d="M15253 19615 c-103 -28 -214 -124 -269 -232 -26 -52 -29 -68 -31
-178 -4 -141 5 -177 65 -257 96 -129 197 -179 343 -172 169 8 333 114 401 261
49 103 45 255 -9 369 -45 96 -155 176 -277 204 -78 17 -169 19 -223 5z"/>
<path d="M23390 19600 c0 -5 9 -14 20 -20 22 -12 27 -1 8 18 -14 14 -28 16
-28 2z"/>
<path d="M23546 19514 c-11 -27 -7 -37 9 -24 16 14 20 40 6 40 -5 0 -12 -7
-15 -16z"/>
<path d="M7220 18830 c-13 -9 -12 -13 9 -30 28 -24 68 -26 99 -4 34 24 26 34
-22 28 -27 -4 -46 -2 -50 5 -9 14 -17 14 -36 1z m30 -10 c0 -5 -2 -10 -4 -10
-3 0 -8 5 -11 10 -3 6 -1 10 4 10 6 0 11 -4 11 -10z"/>
<path d="M7205 18451 c-6 -5 -17 -11 -26 -13 -12 -2 -3 -12 28 -30 43 -27 47
-23 14 15 -13 16 -13 19 -1 27 8 6 10 10 5 10 -6 0 -15 -4 -20 -9z"/>
<path d="M23026 17994 c-9 -22 -9 -22 24 -39 31 -16 70 -12 70 6 0 6 -4 7 -10
4 -5 -3 -21 5 -34 19 -27 30 -41 33 -50 10z"/>
<path d="M7250 17921 c0 -10 26 -9 36 2 4 4 -2 7 -14 7 -12 0 -22 -4 -22 -9z"/>
<path d="M7418 17398 c-9 -29 -15 -54 -13 -56 1 -2 12 12 24 31 19 30 41 47
81 60 8 3 1 6 -17 6 -17 1 -38 3 -45 6 -10 4 -19 -11 -30 -47z"/>
<path d="M22677 15944 c-8 -8 1 -24 14 -24 5 0 9 7 9 15 0 15 -12 20 -23 9z"/>
<path d="M7822 15848 c-8 -8 -8 -17 -1 -30 12 -22 29 -15 29 12 0 24 -13 33
-28 18z"/>
<path d="M22565 15591 c-3 -5 2 -11 10 -15 8 -3 17 -1 20 3 3 5 -2 11 -10 15
-8 3 -17 1 -20 -3z"/>
<path d="M21392 14637 c-10 -11 -7 -16 13 -25 28 -13 32 -5 12 22 -11 15 -15
16 -25 3z"/>
<path d="M21680 14038 c-53 -14 -85 -66 -38 -63 21 1 78 50 78 67 0 4 -1 8 -2
7 -2 0 -19 -5 -38 -11z"/>
<path d="M21460 13950 c-19 -12 -4 -39 30 -57 18 -9 29 -8 56 5 18 10 34 19
34 23 0 5 -88 39 -100 39 -3 0 -12 -5 -20 -10z"/>
<path d="M21281 13906 c-10 -11 -8 -16 8 -21 25 -8 41 1 41 21 0 18 -34 18
-49 0z"/>
<path d="M9281 13777 c-11 -13 -21 -27 -21 -33 1 -5 9 1 20 14 10 13 22 22 25
22 12 -3 17 8 7 14 -5 3 -19 -5 -31 -17z"/>
<path d="M9362 13616 c12 -39 23 -47 25 -17 1 11 -7 27 -17 36 -18 16 -18 16
-8 -19z"/>
<path d="M20340 13085 c0 -15 63 -65 82 -66 40 -1 63 -8 66 -18 4 -13 52 -15
52 -2 0 5 -10 13 -22 17 -13 4 -50 19 -83 34 -71 32 -95 41 -95 35z"/>
<path d="M10120 12978 c-11 -18 -20 -35 -21 -38 0 -3 -2 -13 -4 -23 -3 -18 -2
-18 15 -2 11 10 33 19 50 20 32 3 55 15 28 15 -9 0 -21 14 -27 30 -5 17 -13
30 -16 30 -3 0 -14 -15 -25 -32z"/>
<path d="M11015 12520 c3 -5 8 -10 11 -10 2 0 4 5 4 10 0 6 -5 10 -11 10 -5 0
-7 -4 -4 -10z"/>
<path d="M10811 12466 c-9 -11 -6 -16 19 -24 34 -12 39 -3 11 22 -15 14 -20
14 -30 2z"/>
<path d="M10997 12447 c3 -15 0 -34 -7 -43 -22 -25 1 -37 56 -28 l49 8 -36 9
c-29 7 -40 16 -52 45 -12 28 -15 31 -10 9z"/>
<path d="M19652 12445 c-13 -13 -19 -25 -15 -28 4 -3 21 8 37 24 17 17 23 29
15 28 -8 -1 -24 -11 -37 -24z"/>
<path d="M11250 12295 c0 -8 5 -15 10 -15 6 0 10 7 10 15 0 8 -4 15 -10 15 -5
0 -10 -7 -10 -15z"/>
<path d="M19500 12268 c-50 -13 -110 -40 -110 -50 0 -5 10 -12 23 -17 19 -7
23 -5 27 18 4 22 11 26 40 27 51 1 142 15 137 21 -10 9 -82 10 -117 1z"/>
<path d="M11167 12143 c-13 -13 -7 -21 13 -16 11 3 20 9 20 14 0 10 -24 12
-33 2z"/>
<path d="M13092 11366 c-23 -23 -23 -23 -3 -29 11 -2 28 1 38 8 15 11 21 11
37 -3 18 -16 19 -16 13 1 -4 10 -7 21 -7 23 0 3 -5 2 -10 -1 -6 -3 -13 1 -16
9 -8 22 -25 19 -52 -8z"/>
<path d="M16390 11293 c0 -12 5 -25 10 -28 13 -8 13 15 0 35 -8 12 -10 11 -10
-7z"/>
<path d="M16854 11185 c3 -9 6 -19 6 -21 0 -2 7 -4 16 -4 22 0 13 34 -10 38
-14 3 -17 0 -12 -13z"/>
<path d="M13876 30246 c3 -8 12 -12 20 -9 17 6 9 23 -11 23 -8 0 -12 -6 -9
-14z"/>
<path d="M15266 30198 c-8 -38 -23 -58 -46 -58 -13 0 -16 -6 -12 -25 6 -32 14
-37 44 -26 17 6 36 2 75 -17 52 -26 53 -26 68 -7 19 25 15 57 -7 61 -9 1 -36
5 -59 8 -23 3 -44 8 -46 10 -2 2 1 16 7 31 11 30 7 55 -8 55 -5 0 -12 -14 -16
-32z"/>
<path d="M13940 30209 c0 -5 9 -9 20 -9 11 0 20 2 20 4 0 2 -9 6 -20 9 -11 3
-20 1 -20 -4z"/>
<path d="M17650 30124 c0 -14 31 -63 42 -67 17 -6 48 11 48 26 0 25 -20 41
-54 43 -20 2 -36 1 -36 -2z"/>
<path d="M18156 30112 c-3 -5 0 -9 7 -9 7 0 21 -4 32 -8 l20 -8 -20 16 c-23
19 -32 21 -39 9z"/>
<path d="M12937 29999 c-9 -5 -24 -23 -32 -39 -42 -82 14 -200 95 -200 32 0
70 22 70 41 0 51 -39 86 -66 59 -22 -22 -38 19 -36 86 2 66 0 71 -31 53z"/>
<path d="M11550 29850 c-8 -5 -12 -11 -10 -14 8 -7 60 6 60 15 0 12 -31 11
-50 -1z"/>
<path d="M12135 29819 c-80 -43 -81 -45 -31 -58 56 -14 56 -14 50 4 -4 9 7 20
32 32 20 10 36 23 36 28 -2 19 -47 16 -87 -6z"/>
<path d="M12580 29813 c0 -35 16 -45 28 -19 11 25 7 36 -15 36 -7 0 -13 -8
-13 -17z"/>
<path d="M11810 29751 c0 -14 28 -33 44 -29 11 2 7 8 -14 20 -17 9 -30 13 -30
9z"/>
<path d="M10144 29698 c-14 -28 -24 -51 -22 -53 20 -17 71 -33 96 -30 32 4 99
32 106 44 2 3 -7 23 -20 44 -19 29 -31 37 -57 38 -17 1 -42 3 -55 4 -19 2 -28
-7 -48 -47z"/>
<path d="M10876 29735 c4 -8 10 -15 15 -15 5 0 9 -9 9 -20 0 -23 22 -27 39 -6
9 10 8 16 -3 26 -9 6 -20 9 -26 5 -5 -3 -13 1 -16 9 -3 9 -10 16 -15 16 -4 0
-6 -7 -3 -15z"/>
<path d="M12705 29733 c-11 -2 -31 -13 -45 -23 -21 -17 -23 -21 -10 -30 8 -6
23 -8 32 -6 21 5 40 -16 36 -40 -2 -9 2 -19 8 -21 8 -3 11 17 10 62 0 36 -3
64 -6 64 -3 -1 -14 -4 -25 -6z"/>
<path d="M18692 29724 c-17 -35 -5 -42 66 -38 56 3 77 -1 122 -22 61 -28 91
-26 108 10 15 33 2 42 -19 14 l-17 -22 -66 33 c-83 42 -179 54 -194 25z"/>
<path d="M11978 29698 c-16 -5 -28 -16 -28 -24 0 -7 12 -17 28 -20 15 -4 34
-12 42 -18 9 -6 7 -1 -3 11 -12 14 -16 29 -12 42 3 12 5 21 3 20 -2 0 -15 -5
-30 -11z"/>
<path d="M12040 29623 c1 -20 20 -37 29 -28 7 7 4 14 -9 23 -11 7 -20 9 -20 5z"/>
<path d="M10903 29286 c-11 -18 -18 -38 -14 -45 5 -7 14 4 24 30 21 53 18 57
-10 15z"/>
<path d="M20210 29301 c0 -16 27 -31 78 -45 49 -12 50 -12 40 9 -6 13 -20 22
-38 23 -16 1 -41 7 -55 12 -14 5 -25 6 -25 1z"/>
<path d="M20338 29283 c6 -2 18 -2 25 0 6 3 1 5 -13 5 -14 0 -19 -2 -12 -5z"/>
<path d="M20350 29227 c0 -23 12 -27 40 -11 18 9 20 13 8 14 -9 0 -23 3 -32 6
-10 4 -16 1 -16 -9z"/>
<path d="M20937 29209 c-13 -50 41 -80 77 -43 21 21 20 29 -6 42 -49 23 -65
24 -71 1z"/>
<path d="M10933 29195 c-10 -10 -9 -15 0 -24 10 -7 13 -4 15 15 2 28 1 28 -15
9z"/>
<path d="M20910 29067 c0 -3 -7 -22 -16 -43 -16 -39 -16 -39 4 -21 23 21 34
54 21 63 -5 3 -9 3 -9 1z"/>
<path d="M10245 29019 c-17 -5 -44 -22 -60 -39 -33 -35 -34 -35 32 -15 82 24
109 75 28 54z"/>
<path d="M11401 28980 c-17 -10 -7 -40 14 -40 8 0 15 9 15 19 0 24 -12 32 -29
21z"/>
<path d="M21355 28962 c23 -11 44 -16 49 -11 14 12 7 16 -44 23 l-45 7 40 -19z"/>
<path d="M23440 28788 c-12 -22 -12 -22 6 -6 10 10 15 20 12 24 -4 3 -12 -5
-18 -18z"/>
<path d="M22296 28742 c-2 -4 4 -19 15 -32 11 -14 32 -43 46 -64 23 -36 24
-40 9 -52 -9 -6 -25 -10 -35 -7 -19 5 -19 5 -37 -84 -5 -28 -3 -33 24 -47 29
-15 49 -47 38 -64 -2 -4 -7 -30 -10 -57 -7 -56 3 -68 44 -52 22 8 35 8 54 -2
14 -8 35 -11 51 -7 l27 7 -46 49 c-48 51 -86 124 -86 165 0 44 10 55 50 55 38
0 67 21 55 40 -3 5 -15 10 -26 10 -28 0 -23 19 7 26 19 5 38 -2 77 -29 85 -58
137 -51 78 10 -16 17 -35 33 -42 36 -10 4 -8 6 4 6 10 1 27 -4 38 -10 11 -5
29 -7 39 -4 58 18 -19 45 -128 45 -70 0 -76 2 -107 33 -27 27 -41 32 -83 34
-28 2 -53 -1 -56 -5z"/>
<path d="M23451 28657 c-1 -10 -5 -16 -10 -13 -4 3 -19 -6 -31 -19 l-23 -25
34 0 c32 0 91 29 61 30 -7 0 -17 10 -22 23 -7 18 -9 18 -9 4z"/>
<path d="M21537 28646 c-16 -12 -10 -16 55 -39 100 -35 118 -40 118 -29 0 13
-115 82 -137 82 -10 0 -26 -7 -36 -14z"/>
<path d="M8440 28611 c-22 -4 -30 -9 -23 -14 17 -11 5 -35 -20 -39 -12 -2 -27
-14 -34 -28 -12 -24 -11 -25 18 -28 28 -3 30 -6 24 -31 -6 -26 -3 -29 32 -35
95 -15 204 9 219 49 14 36 -29 106 -77 123 -29 10 -91 12 -139 3z"/>
<path d="M10655 28605 c-16 -9 -37 -24 -47 -35 -9 -11 -21 -20 -26 -20 -5 0
-15 -7 -22 -15 -7 -9 -15 -13 -18 -11 -7 8 -55 -19 -75 -42 -18 -19 -28 -20
-163 -16 -140 4 -144 4 -158 -18 -22 -33 -14 -62 16 -66 19 -2 27 2 31 17 9
36 54 45 117 25 67 -21 226 -28 233 -10 3 7 1 19 -4 27 -12 20 -11 29 4 29 6
1 28 14 47 30 43 38 73 40 68 5 -4 -28 0 -29 49 -20 45 8 94 32 110 54 14 19
17 45 4 37 -5 -3 -30 5 -55 19 -55 29 -70 30 -111 10z"/>
<path d="M9320 28520 c-36 -16 -60 -30 -54 -30 15 0 25 -26 18 -44 -3 -7 -17
-19 -32 -25 -23 -11 -24 -14 -10 -22 39 -22 104 3 139 53 36 51 46 59 79 61
l31 2 -22 18 c-30 24 -74 21 -149 -13z"/>
<path d="M8917 28503 c-3 -4 -4 -26 -3 -48 1 -38 3 -40 30 -37 30 3 76 29 76
42 0 21 -93 60 -103 43z"/>
<path d="M9910 28436 c-54 -15 -106 -41 -133 -67 -26 -24 -11 -25 57 -4 74 22
177 87 134 84 -7 0 -33 -6 -58 -13z"/>
<path d="M10049 28421 c-30 -24 -16 -42 32 -44 38 -2 46 16 21 46 -19 22 -24
21 -53 -2z"/>
<path d="M9115 28342 c-55 -10 -92 -28 -148 -75 -34 -28 -64 -54 -67 -57 -8
-11 -49 -31 -72 -35 -28 -6 -36 -15 -12 -15 11 0 30 -7 42 -16 30 -21 65 -7
117 46 52 53 91 66 142 46 l38 -16 -28 25 c-34 30 -30 50 10 60 29 7 53 22 53
34 0 7 -45 9 -75 3z"/>
<path d="M22237 28274 c-13 -13 -7 -24 14 -24 11 0 19 5 17 12 -5 14 -22 21
-31 12z"/>
<path d="M9505 28256 c-51 -36 -149 -49 -225 -31 -19 5 -41 10 -48 11 -16 3
-35 -33 -28 -52 5 -13 8 -13 27 0 20 14 24 12 58 -23 21 -21 56 -48 80 -60
l42 -22 49 32 c43 28 48 34 39 51 -9 16 -4 25 27 52 49 43 31 79 -21 42z"/>
<path d="M9669 28194 c-5 -15 -8 -29 -5 -31 2 -2 8 10 14 26 13 38 5 41 -9 5z"/>
<path d="M10208 28155 c-20 -7 -54 -25 -75 -39 -21 -14 -52 -26 -69 -26 -17 0
-33 -3 -37 -6 -9 -10 4 -34 19 -34 19 0 17 -14 -5 -34 -19 -17 -18 -56 1 -56
5 0 27 18 50 40 23 21 45 37 49 34 4 -2 16 9 25 25 12 21 35 36 76 52 32 12
58 26 58 30 0 8 -45 31 -53 28 -1 0 -19 -7 -39 -14z"/>
<path d="M9735 28143 c18 -45 17 -50 -10 -50 -41 0 -53 -19 -29 -44 12 -11 27
-17 36 -14 16 6 83 94 77 99 -13 11 -50 26 -64 26 -12 0 -15 -5 -10 -17z"/>
<path d="M9903 28110 c-69 -31 -69 -53 1 -66 29 -5 37 -4 31 5 -4 7 -1 26 5
42 7 16 11 31 9 34 -3 2 -23 -4 -46 -15z"/>
<path d="M8440 28072 c0 -21 -38 -50 -70 -54 -19 -3 -42 -7 -50 -9 -8 -2 -19
6 -25 19 -6 14 -18 22 -35 22 -25 0 -25 0 6 -19 26 -16 30 -24 27 -48 -3 -20
1 -34 14 -44 16 -13 17 -13 4 3 -18 24 -7 48 24 48 14 0 38 6 53 14 17 8 35
10 47 5 32 -13 36 -10 29 18 -4 15 -7 33 -7 40 0 7 -4 13 -9 13 -4 0 -8 -4 -8
-8z"/>
<path d="M8583 28033 c-10 -16 -21 -31 -26 -34 -5 -4 -4 -10 3 -14 16 -10 41
17 44 49 4 33 1 33 -21 -1z"/>
<path d="M8656 28026 c3 -8 -4 -24 -15 -35 -12 -12 -21 -25 -21 -30 0 -5 -7
-11 -15 -15 -9 -3 -15 0 -15 9 0 8 -4 15 -9 15 -5 0 -7 -9 -4 -19 4 -14 -1
-20 -17 -23 l-22 -3 21 -24 c23 -27 24 -30 12 -49 -13 -21 -43 -21 -83 0 -41
20 -46 31 -23 54 8 9 15 23 15 32 -1 13 -5 11 -20 -8 -10 -14 -26 -33 -35 -43
-9 -10 -13 -22 -9 -28 13 -21 -18 -68 -51 -79 -44 -14 -64 -38 -44 -51 24 -15
58 -10 79 11 12 12 18 25 14 31 -10 16 5 59 20 59 21 0 25 -23 8 -42 -10 -12
-11 -18 -3 -18 6 0 14 6 17 13 5 14 87 18 99 5 3 -3 -12 -16 -32 -30 -54 -36
-111 -95 -134 -140 -11 -21 -18 -38 -15 -38 2 0 21 7 42 16 78 33 188 58 264
59 28 0 34 -4 32 -17 -2 -10 2 -18 8 -18 13 0 29 40 23 56 -6 15 14 27 22 14
11 -19 87 -10 146 16 57 26 59 28 59 65 0 33 -4 41 -32 55 -21 11 -60 18 -105
19 -39 1 -85 8 -102 15 -27 11 -61 49 -68 75 -1 6 -5 19 -8 31 -4 13 0 27 10
37 9 9 13 21 10 27 -9 15 -25 12 -19 -4z m-37 -185 c12 -8 12 -12 2 -25 -14
-16 -42 -21 -54 -10 -9 9 11 44 26 44 7 0 18 -4 26 -9z m-125 -7 c9 -3 16 -12
16 -19 0 -19 -33 -11 -36 8 -3 19 -2 19 20 11z"/>
<path d="M9313 28008 c13 -21 51 -28 65 -13 11 11 -23 35 -50 35 -29 0 -30 -1
-15 -22z"/>
<path d="M23731 28004 c-9 -20 -17 -25 -33 -21 -33 9 -6 -13 44 -34 41 -18 42
-18 19 -1 -19 16 -22 24 -16 50 8 39 2 41 -14 6z"/>
<path d="M9957 28003 c-12 -11 -8 -23 8 -23 8 0 15 7 15 15 0 16 -12 20 -23 8z"/>
<path d="M23593 27948 c-16 -23 -32 -66 -26 -72 12 -12 61 -6 72 8 10 11 9 21
-4 45 -17 33 -27 38 -42 19z"/>
<path d="M23020 27897 c0 -3 19 -16 43 -30 23 -14 89 -61 147 -104 111 -82
170 -116 232 -132 36 -9 34 -7 -49 72 -47 45 -93 87 -102 93 -35 25 -114 66
-154 80 -45 16 -117 29 -117 21z"/>
<path d="M8363 27863 c9 -2 23 -2 30 0 6 3 -1 5 -18 5 -16 0 -22 -2 -12 -5z"/>
<path d="M7802 27824 c14 -14 21 -15 30 -6 8 8 9 12 1 12 -6 0 -20 3 -30 6
-17 7 -17 6 -1 -12z"/>
<path d="M23780 27693 c16 -55 29 -81 53 -107 27 -29 76 -43 102 -29 14 8 10
17 -33 64 -27 30 -68 64 -90 77 l-41 23 9 -28z"/>
<path d="M9107 27642 c-32 -22 -22 -38 27 -44 36 -4 43 12 19 41 -18 21 -18
21 -46 3z"/>
<path d="M8118 27634 c32 -14 33 -17 27 -54 -6 -37 -5 -40 17 -40 12 0 32 7
43 15 12 10 30 13 52 9 37 -7 41 1 15 32 -32 40 -67 56 -96 45 -17 -7 -35 -7
-52 -1 -39 15 -43 10 -6 -6z"/>
<path d="M8780 27523 c-14 -9 -31 -23 -39 -31 -8 -7 -24 -20 -37 -28 -19 -13
-21 -19 -12 -39 7 -15 16 -21 28 -18 10 3 27 0 38 -6 19 -10 21 -8 20 18 -1
32 22 75 56 103 l21 17 -25 1 c-14 0 -37 -8 -50 -17z"/>
<path d="M8444 27446 c-3 -8 -4 -24 -2 -36 3 -21 4 -21 41 8 29 23 34 31 21
36 -27 10 -54 7 -60 -8z"/>
<path d="M7923 27395 c3 -24 -1 -39 -14 -51 -11 -10 -19 -21 -19 -25 0 -10 65
19 100 44 l25 18 -28 25 c-15 13 -37 24 -48 24 -16 0 -19 -6 -16 -35z"/>
<path d="M7827 27210 c6 -21 47 -28 58 -11 6 11 -1 16 -37 25 -22 5 -25 3 -21
-14z"/>
<path d="M7561 27165 c-21 -35 -35 -43 -46 -25 -14 22 -23 7 -28 -47 -7 -81
-14 -109 -55 -218 -14 -38 -29 -74 -34 -79 -14 -17 -9 -27 9 -18 28 16 128
120 153 160 17 27 37 44 65 53 39 14 89 71 82 93 -7 21 -45 17 -72 -8 -49 -45
-58 -36 -50 49 4 41 5 75 2 75 -3 0 -14 -16 -26 -35z"/>
<path d="M8648 27120 c-22 -18 -19 -22 17 -22 29 0 35 2 35 16 0 23 -28 26
-52 6z"/>
<path d="M8036 26975 c-9 -26 -7 -32 5 -12 6 10 9 21 6 23 -2 3 -7 -2 -11 -11z"/>
<path d="M7715 26916 c-18 -7 -25 -15 -18 -19 19 -12 119 -10 139 2 10 7 12
10 4 8 -8 -2 -30 2 -49 9 -40 17 -38 17 -76 0z"/>
<path d="M7060 26886 c0 -3 8 -15 17 -26 18 -20 33 -26 33 -12 -1 8 -50 46
-50 38z"/>
<path d="M7180 26855 c0 -8 7 -15 15 -15 8 0 15 7 15 15 0 8 -7 15 -15 15 -8
0 -15 -7 -15 -15z"/>
<path d="M7787 26834 c-11 -11 -121 -30 -167 -29 -25 1 -63 5 -85 10 -39 8
-40 7 -22 -12 20 -23 14 -33 -21 -33 -14 0 -38 -14 -60 -36 -32 -32 -38 -34
-61 -24 -23 10 -28 8 -55 -25 -26 -31 -35 -36 -58 -30 -15 4 -29 12 -31 19 -3
8 -17 11 -36 8 -17 -2 -28 -9 -25 -14 3 -5 16 -7 29 -4 14 4 28 0 35 -9 7 -8
21 -15 31 -15 19 0 55 -46 54 -70 -1 -23 -17 -45 -47 -64 -26 -17 -27 -18 -11
-51 28 -59 13 -94 -73 -164 -41 -34 -90 -86 -108 -114 -43 -67 -55 -77 -102
-83 -54 -6 -82 -28 -94 -74 -10 -38 -55 -94 -95 -116 -19 -12 -19 -12 6 -22
51 -20 46 -91 -17 -212 -18 -36 -37 -77 -43 -92 -6 -16 -27 -36 -51 -48 -44
-23 -45 -23 -29 -48 10 -15 7 -23 -15 -45 -31 -31 -34 -67 -6 -74 28 -7 25
-23 -13 -63 -48 -52 -80 -97 -122 -175 -20 -38 -48 -85 -62 -103 -25 -33 -89
-72 -120 -72 -10 0 -28 -6 -41 -13 -22 -11 -24 -18 -27 -146 -3 -99 -8 -139
-20 -157 -20 -31 -28 -30 -65 6 -38 37 -54 39 -38 5 6 -14 22 -28 35 -31 30
-8 30 -39 -1 -59 -27 -18 -50 -71 -36 -80 5 -3 29 0 52 6 24 7 61 13 82 13 30
1 40 5 42 19 2 15 -4 18 -32 15 -18 -1 -34 0 -35 2 -4 11 26 80 37 84 6 2 29
-7 49 -21 41 -28 67 -23 73 12 5 23 -16 36 -48 30 -14 -2 -32 0 -40 5 -12 8
-6 18 35 60 27 27 57 53 67 56 14 4 18 14 16 47 -3 35 0 42 17 45 49 8 63 13
85 32 18 16 26 18 29 8 14 -45 57 -22 63 34 4 35 1 46 -15 59 -13 11 -18 23
-13 34 6 16 8 16 31 1 13 -9 31 -16 40 -16 25 0 11 43 -18 58 -15 7 -27 17
-27 22 0 17 17 19 43 5 25 -13 28 -12 49 18 12 18 25 34 28 37 3 3 30 37 60
75 30 39 57 72 60 75 3 3 23 28 44 55 22 28 56 68 75 90 20 22 61 69 91 105
30 35 94 104 143 154 l87 91 -2 115 c-3 111 -2 116 24 150 14 19 38 58 53 85
15 28 31 54 36 60 13 14 11 36 -6 55 -14 15 -13 19 10 42 44 45 102 79 137 83
46 4 95 30 103 55 7 22 5 21 57 25 23 2 49 13 68 29 18 14 35 26 40 26 20 0
17 32 -6 60 -29 33 -25 50 12 50 41 0 51 39 25 99 -11 27 -21 66 -21 85 0 34
-15 47 -33 30z m-407 -479 c0 -14 -8 -29 -19 -35 -41 -22 -49 -37 -45 -92 4
-47 1 -57 -25 -89 -16 -19 -46 -44 -66 -54 l-37 -20 -19 24 -19 23 56 57 c58
58 78 91 76 127 -1 15 11 30 38 48 22 14 40 31 40 37 0 5 5 7 10 4 6 -3 10
-17 10 -30z"/>
<path d="M7128 26743 c-36 -9 -27 -65 11 -62 13 1 13 2 -1 6 -10 2 -18 12 -18
20 0 9 8 22 18 29 18 14 17 14 -10 7z"/>
<path d="M7964 26673 c-27 -29 -23 -43 10 -43 25 0 89 59 65 61 -8 0 -22 2
-33 4 -10 2 -29 -8 -42 -22z"/>
<path d="M24768 26693 c-13 -4 -11 -12 17 -55 18 -27 32 -59 30 -69 -3 -13 2
-19 14 -19 9 0 26 -7 37 -15 10 -8 29 -15 40 -15 12 0 24 -7 28 -15 6 -16 43
-20 64 -6 11 7 10 10 -3 15 -9 3 -27 6 -40 6 -32 0 -41 17 -20 40 21 23 12 40
-21 40 -49 0 -85 38 -51 54 6 4 2 4 -10 2 -14 -2 -31 5 -45 18 -13 12 -30 20
-40 19z m90 -122 c3 -8 -1 -12 -9 -9 -7 2 -15 10 -17 17 -3 8 1 12 9 9 7 -2
15 -10 17 -17z"/>
<path d="M6867 26526 l-25 -24 41 -27 42 -27 -24 26 c-21 22 -23 29 -13 51 14
31 12 31 -21 1z"/>
<path d="M7110 26408 c0 -18 4 -38 8 -45 4 -6 7 8 7 33 0 24 -3 44 -7 44 -5 0
-8 -15 -8 -32z"/>
<path d="M7694 26329 c-9 -16 2 -22 21 -11 15 8 16 10 1 15 -8 3 -18 2 -22 -4z"/>
<path d="M7670 26130 c0 -6 -10 -8 -22 -5 -13 3 -29 1 -37 -4 -12 -8 -12 -11
0 -23 15 -15 33 -17 45 -5 4 4 18 7 31 7 16 0 23 6 23 20 0 13 -7 20 -20 20
-11 0 -20 -5 -20 -10z"/>
<path d="M26130 25341 c0 -8 69 -87 71 -81 0 3 2 14 4 24 6 31 -12 53 -45 58
-16 3 -30 2 -30 -1z"/>
<path d="M6228 25277 c-52 -53 -59 -80 -29 -97 26 -13 31 -13 31 3 0 7 22 39
50 72 27 32 47 62 44 66 -12 20 -53 1 -96 -44z"/>
<path d="M6332 25255 c-59 -61 -82 -98 -82 -134 l0 -25 28 26 c38 36 85 58
151 71 l57 12 -50 52 -51 52 -53 -54z"/>
<path d="M6021 25019 c-29 -11 -50 -37 -51 -62 0 -11 -6 -17 -16 -15 -38 7
-24 -35 16 -47 23 -6 23 -6 7 7 -17 12 -17 16 -2 45 9 17 35 43 58 57 41 25
35 34 -12 15z"/>
<path d="M26200 25008 c-53 -23 -77 -43 -97 -81 -25 -49 -10 -49 45 -2 30 25
59 45 67 45 17 0 37 26 33 43 -2 12 -11 11 -48 -5z"/>
<path d="M5797 25008 c-2 -7 2 -30 11 -51 12 -31 12 -40 1 -54 -13 -15 -12
-15 7 -5 18 9 24 7 42 -13 12 -14 30 -25 39 -25 16 0 16 1 0 13 -9 6 -23 35
-33 62 -22 69 -55 105 -67 73z"/>
<path d="M6030 24911 c-25 -24 -28 -30 -15 -35 25 -9 15 -51 -12 -51 -12 0
-28 -6 -34 -12 -10 -10 -6 -13 23 -13 37 0 48 12 48 50 0 10 11 32 25 48 14
17 25 33 25 36 0 16 -33 3 -60 -23z"/>
<path d="M6020 24713 c0 -6 -9 -13 -21 -16 -30 -8 -21 -42 11 -42 19 0 26 6
28 24 2 13 -1 28 -7 34 -8 8 -11 8 -11 0z"/>
<path d="M5909 24511 c-25 -10 -58 -17 -73 -15 -21 2 -26 -1 -26 -20 0 -27 25
-52 61 -61 22 -6 27 -3 33 19 3 14 20 38 37 54 39 37 27 45 -32 23z"/>
<path d="M26395 24361 c-6 -11 26 -31 49 -31 22 0 20 17 -3 30 -24 13 -38 13
-46 1z"/>
<path d="M5151 23946 c-27 -32 33 -102 65 -75 26 21 17 54 -20 72 -28 13 -36
14 -45 3z"/>
<path d="M26587 23616 c14 -11 31 -14 48 -10 34 9 25 16 -27 21 -42 4 -42 4
-21 -11z"/>
<path d="M26951 23279 c-14 -5 -31 -7 -38 -5 -23 9 9 -32 34 -43 32 -15 31
-15 35 17 2 19 9 27 22 27 31 0 42 -28 27 -73 -18 -53 -9 -77 11 -32 29 63 29
62 -10 105 -15 17 -46 18 -81 4z"/>
<path d="M26940 23148 c0 -37 -24 -92 -56 -134 l-23 -31 24 0 c15 0 37 -13 54
-32 50 -53 61 -41 49 53 -7 60 -47 178 -48 144z"/>
<path d="M5056 22814 c-3 -9 -6 -25 -6 -37 1 -17 4 -15 15 12 18 39 18 41 6
41 -5 0 -12 -7 -15 -16z"/>
<path d="M25905 22760 c3 -5 13 -10 21 -10 8 0 12 5 9 10 -3 6 -13 10 -21 10
-8 0 -12 -4 -9 -10z"/>
<path d="M25996 22762 c-3 -6 5 -17 19 -26 29 -19 33 -7 6 18 -11 10 -22 13
-25 8z"/>
<path d="M5038 22730 c-3 -9 -16 -14 -37 -12 -28 2 -31 0 -23 -15 5 -10 7 -24
4 -31 -3 -10 3 -9 22 4 15 9 41 17 59 17 24 -1 27 1 13 6 -11 4 -23 16 -26 26
-5 15 -8 16 -12 5z"/>
<path d="M26184 22724 c-14 -12 -16 -17 -6 -21 8 -3 29 -19 48 -35 29 -26 35
-28 40 -14 4 11 -5 29 -28 51 -32 32 -36 34 -54 19z"/>
<path d="M5100 22691 c0 -5 8 -12 17 -15 14 -6 14 -8 -5 -22 -16 -11 -20 -22
-16 -38 4 -18 -2 -30 -22 -50 -32 -29 -27 -39 29 -54 34 -9 39 -8 52 12 8 12
17 39 20 61 3 22 8 45 10 52 2 6 -4 18 -13 26 -22 20 -72 39 -72 28z"/>
<path d="M26251 22577 c-29 -32 -27 -44 10 -52 20 -5 34 -16 40 -32 l10 -26
25 24 c24 22 24 24 5 31 -11 4 -27 20 -35 37 -22 41 -30 44 -55 18z"/>
<path d="M5258 22583 c-35 -9 -28 -63 8 -63 18 0 35 34 28 54 -6 16 -7 17 -36
9z"/>
<path d="M26451 22510 c-7 -23 -15 -48 -18 -56 -3 -8 1 -14 9 -14 8 0 24 -9
36 -20 l21 -20 -6 53 c-3 28 -11 62 -18 75 -11 23 -12 22 -24 -18z"/>
<path d="M4982 22510 c7 -10 14 -18 15 -16 6 6 -9 36 -18 36 -5 0 -4 -9 3 -20z"/>
<path d="M5088 22466 c-44 -34 -45 -33 93 -51 20 -2 29 3 38 21 13 28 12 29
-25 9 -28 -15 -30 -14 -54 14 l-25 29 -27 -22z"/>
<path d="M4945 22420 c28 -12 37 -12 30 0 -3 6 -16 10 -28 9 -21 0 -21 -1 -2
-9z"/>
<path d="M4966 22384 c-4 -9 -4 -19 -1 -22 2 -3 7 3 11 12 4 9 4 19 1 22 -2 3
-7 -3 -11 -12z"/>
<path d="M26510 22373 c10 -22 50 -33 50 -13 0 5 -7 7 -15 3 -9 -3 -22 3 -31
13 -14 18 -14 18 -4 -3z"/>
<path d="M26480 22264 c-9 -26 -10 -71 -5 -153 4 -64 7 -131 6 -148 -2 -40 8
-41 43 -7 22 23 26 35 25 75 -2 38 4 57 25 89 l27 42 -23 55 c-15 36 -32 60
-50 69 -36 19 -35 19 -48 -22z"/>
<path d="M26765 22251 c-3 -5 9 -31 27 -58 27 -39 34 -44 36 -27 2 11 -2 32
-7 47 -11 29 -46 53 -56 38z"/>
<path d="M4870 22154 c-29 -30 -19 -42 40 -48 6 -1 10 1 9 4 0 3 4 17 10 32 8
21 7 27 -5 32 -24 9 -29 8 -54 -20z"/>
<path d="M26713 22145 c-21 -15 -21 -15 12 -50 34 -36 62 -47 52 -21 -3 8 -9
31 -13 50 -7 39 -18 44 -51 21z"/>
<path d="M5035 22101 c-10 -18 15 -22 37 -7 l22 16 -26 0 c-15 0 -29 -4 -33
-9z"/>
<path d="M4908 22010 l-33 -29 31 -1 c39 0 69 22 61 44 -9 23 -22 20 -59 -14z"/>
<path d="M26509 21869 c-5 -132 7 -193 46 -229 33 -31 39 -22 19 25 -9 21 -24
81 -34 133 -20 102 -29 124 -31 71z"/>
<path d="M26280 21726 c0 -2 11 -23 24 -46 23 -41 41 -37 25 7 -7 18 -49 52
-49 39z"/>
<path d="M26094 21572 c-17 -11 2 -52 24 -52 11 0 25 7 32 15 23 28 -23 59
-56 37z"/>
<path d="M26211 21101 c21 -123 58 -283 69 -300 5 -8 16 -11 30 -6 23 7 24 22
5 135 -14 82 -93 270 -114 270 -4 0 0 -45 10 -99z"/>
<path d="M4753 21002 c-49 -3 -52 -5 -59 -35 -19 -89 -9 -114 30 -73 13 14 28
26 34 26 16 0 4 -51 -18 -82 l-20 -27 23 -27 24 -27 14 31 c8 18 17 32 20 32
24 0 34 174 11 182 -4 2 -30 2 -59 0z"/>
<path d="M4413 20902 c-17 -11 1 -36 21 -29 9 4 16 13 16 22 0 16 -17 20 -37
7z"/>
<path d="M4481 20839 c-21 -8 -22 -13 -16 -47 4 -20 9 -40 12 -45 7 -12 30 11
36 36 2 12 8 29 11 38 9 21 -12 29 -43 18z"/>
<path d="M4657 20833 c-4 -3 -7 -15 -7 -25 0 -31 40 -20 53 15 5 13 1 17 -17
17 -12 0 -26 -3 -29 -7z"/>
<path d="M4576 20731 c-15 -23 71 -42 102 -22 11 6 10 10 -5 15 -34 13 -91 18
-97 7z"/>
<path d="M26697 20724 c-14 -15 -6 -100 14 -144 16 -35 22 -41 29 -30 5 8 10
31 10 51 0 61 -35 141 -53 123z"/>
<path d="M26302 20450 c-28 -26 -29 -30 -12 -30 11 0 20 5 20 12 0 6 7 20 17
30 26 29 9 21 -25 -12z"/>
<path d="M4478 20334 c-15 -32 0 -59 33 -59 30 0 36 27 15 60 -21 32 -33 31
-48 -1z"/>
<path d="M4441 19973 c-11 -49 -22 -110 -26 -138 -3 -27 -12 -78 -19 -112 -14
-69 -16 -69 47 -10 16 15 38 27 48 27 26 0 24 8 -6 32 -30 23 -23 42 12 33 22
-5 24 -3 18 16 -4 11 -9 54 -11 95 -3 65 -24 144 -38 144 -2 0 -13 -39 -25
-87z"/>
<path d="M26261 19623 c0 -16 3 -22 6 -15 2 6 14 12 26 12 22 1 22 1 3 15 -28
21 -36 19 -35 -12z"/>
<path d="M4731 18770 c-2 -8 -5 -28 -7 -45 -9 -62 -45 -165 -61 -173 -9 -5
-24 -7 -34 -5 -23 6 -69 -4 -69 -16 0 -4 11 -6 25 -3 39 7 72 -6 115 -44 33
-30 40 -33 41 -18 0 11 2 28 5 39 10 47 9 145 -2 210 -6 39 -12 63 -13 55z"/>
<path d="M4986 18502 c-8 -13 11 -35 23 -28 16 10 14 36 -3 36 -8 0 -17 -4
-20 -8z"/>
<path d="M4445 18430 c-8 -13 8 -18 29 -10 19 6 19 7 -2 12 -12 4 -24 2 -27
-2z"/>
<path d="M4405 18161 c-3 -5 -1 -12 5 -16 5 -3 10 1 10 9 0 18 -6 21 -15 7z"/>
<path d="M26892 17655 c6 -14 15 -25 20 -25 5 0 1 11 -8 25 -9 14 -18 25 -20
25 -2 0 2 -11 8 -25z"/>
<path d="M4859 17483 c-1 -16 -3 -39 -5 -53 -5 -40 16 -117 37 -136 18 -17 19
-16 20 27 2 44 2 81 0 152 -1 33 -4 37 -26 37 -20 0 -25 -5 -26 -27z"/>
<path d="M4585 17033 c3 -8 5 -17 5 -19 0 -2 12 -4 27 -4 25 0 25 1 10 18 -20
22 -50 25 -42 5z"/>
<path d="M4648 16951 c-5 -52 13 -72 41 -47 13 11 21 14 26 7 8 -15 41 -14 64
1 17 10 23 8 39 -13 28 -33 40 -16 18 25 -22 41 -53 56 -127 63 l-57 6 -4 -42z"/>
<path d="M4908 16924 c-3 -3 1 -19 9 -35 8 -16 17 -57 19 -91 3 -35 12 -77 21
-95 17 -36 79 -88 88 -73 3 5 -9 40 -26 77 -21 46 -32 85 -33 120 -1 47 -4 55
-35 78 -40 28 -36 27 -43 19z"/>
<path d="M26455 16910 c-3 -6 1 -13 10 -16 19 -8 30 0 20 15 -8 14 -22 14 -30
1z"/>
<path d="M4708 16339 c-18 -10 -25 -39 -10 -39 5 0 18 -9 30 -21 l23 -20 -7
28 c-14 57 -18 62 -36 52z"/>
<path d="M4800 16340 c0 -5 5 -10 10 -10 6 0 10 5 10 10 0 6 -4 10 -10 10 -5
0 -10 -4 -10 -10z"/>
<path d="M4830 16339 c0 -5 5 -7 10 -4 6 3 10 8 10 11 0 2 -4 4 -10 4 -5 0
-10 -5 -10 -11z"/>
<path d="M4998 16109 c-5 -33 -1 -35 27 -16 11 7 31 14 44 15 26 1 48 24 30
31 -6 2 -22 -3 -36 -10 -18 -10 -29 -10 -43 -2 -16 10 -18 8 -22 -18z"/>
<path d="M5172 16094 c4 -21 22 -23 26 -1 2 10 -3 17 -13 17 -10 0 -15 -6 -13
-16z"/>
<path d="M4862 16014 c1 -9 9 -19 16 -22 9 -3 13 2 10 14 -1 9 -9 19 -16 22
-9 3 -13 -2 -10 -14z"/>
<path d="M25934 15455 c-7 -37 7 -60 31 -51 14 4 7 58 -10 75 -12 12 -15 8
-21 -24z"/>
<path d="M25593 15428 c-11 -5 -29 -25 -39 -44 -19 -35 -32 -41 -49 -25 -6 6
-11 -54 -13 -162 l-3 -172 20 25 c31 39 72 159 95 280 2 14 9 44 14 68 10 45
9 46 -25 30z"/>
<path d="M25451 14968 l-43 -31 30 -28 c17 -16 35 -29 40 -29 5 0 13 21 17 46
3 26 9 53 12 60 8 21 -8 16 -56 -18z"/>
<path d="M5358 14975 c34 -15 39 -24 21 -42 -14 -14 -3 -33 17 -33 25 0 27 28
4 60 -15 21 -29 30 -48 30 -27 -1 -27 -1 6 -15z"/>
<path d="M5300 14969 c0 -5 5 -7 10 -4 6 3 10 8 10 11 0 2 -4 4 -10 4 -5 0
-10 -5 -10 -11z"/>
<path d="M25351 14858 c-18 -18 -43 -53 -55 -78 -43 -86 -121 -330 -106 -330
15 0 68 69 103 132 68 121 128 308 100 308 -5 0 -24 -14 -42 -32z"/>
<path d="M5467 14831 c-6 -26 27 -34 47 -12 23 25 20 31 -13 31 -20 0 -30 -6
-34 -19z"/>
<path d="M26583 14803 c4 -6 20 -13 37 -15 37 -6 27 8 -14 18 -19 4 -27 3 -23
-3z"/>
<path d="M5371 14775 c-1 -11 -8 -33 -16 -49 -19 -36 -19 -41 0 -22 10 10 26
13 44 10 36 -7 51 13 17 22 -15 3 -29 17 -35 32 -8 22 -10 23 -10 7z"/>
<path d="M25715 14430 c-3 -5 1 -10 9 -10 9 0 16 5 16 10 0 6 -4 10 -9 10 -6
0 -13 -4 -16 -10z"/>
<path d="M25748 14383 c7 -3 16 -2 19 1 4 3 -2 6 -13 5 -11 0 -14 -3 -6 -6z"/>
<path d="M6097 14246 c-9 -23 19 -89 42 -97 18 -7 17 -3 -9 33 -28 39 -29 42
-14 60 15 16 15 18 2 18 -9 0 -18 -6 -21 -14z"/>
<path d="M24791 13736 c-14 -17 -6 -56 12 -56 7 0 22 3 33 6 18 5 21 10 15 32
-8 31 -41 41 -60 18z"/>
<path d="M24327 12983 c-10 -3 -16 -10 -14 -16 6 -18 38 -21 48 -5 18 27 9 32
-34 21z"/>
<path d="M24100 12729 c-53 -48 -54 -51 -36 -65 30 -21 63 -17 102 13 29 22
34 31 29 52 -7 27 -23 51 -34 51 -3 -1 -31 -24 -61 -51z"/>
<path d="M6610 12729 c0 -11 27 -12 34 -1 2 4 -4 9 -15 9 -10 1 -19 -2 -19 -8z"/>
<path d="M24900 12670 c0 -6 7 -10 15 -10 8 0 15 2 15 4 0 2 -7 6 -15 10 -8 3
-15 1 -15 -4z"/>
<path d="M6948 11966 c-19 -14 -24 -36 -9 -36 12 0 33 28 29 39 -2 6 -10 4
-20 -3z"/>
<path d="M22930 11570 c0 -14 15 -19 29 -11 9 6 7 10 -8 14 -12 3 -21 1 -21
-3z"/>
<path d="M22896 11485 c-3 -8 -1 -15 4 -15 6 0 10 7 10 15 0 8 -2 15 -4 15 -2
0 -6 -7 -10 -15z"/>
<path d="M8011 11463 c0 -5 4 -17 8 -28 5 -11 5 -27 0 -36 -7 -14 -1 -18 34
-23 92 -16 97 -16 85 4 -6 10 -29 23 -50 29 -31 10 -38 17 -38 36 0 18 -5 25
-20 25 -11 0 -20 -3 -19 -7z"/>
<path d="M7666 11001 c10 -11 30 -14 59 -11 l20 1 -20 9 c-28 12 -72 12 -59 1z"/>
<path d="M21348 10294 c-3 -3 -20 -6 -37 -6 -38 -1 -39 -3 -1 -16 24 -9 33 -7
52 8 18 15 19 19 7 20 -9 0 -18 -3 -21 -6z"/>
<path d="M9398 10014 c-5 -4 -8 -16 -8 -28 0 -14 3 -17 11 -9 6 6 9 19 7 28
-1 9 -6 13 -10 9z"/>
<path d="M21135 9986 c-20 -16 -48 -25 -86 -29 -91 -8 -158 -55 -203 -141 -31
-58 -32 -76 -7 -76 21 0 41 21 56 58 8 19 23 28 65 39 30 7 70 26 89 40 26 20
50 28 93 31 56 4 59 6 73 39 8 20 15 42 15 49 0 23 -61 17 -95 -10z"/>
<path d="M21292 9876 c-6 -14 -29 -36 -51 -50 -41 -26 -71 -61 -71 -84 0 -9 5
-10 16 -4 11 6 35 5 68 -4 28 -8 64 -14 79 -14 30 0 32 2 114 104 41 52 44 58
22 52 -64 -19 -97 -15 -160 21 -3 2 -11 -8 -17 -21z"/>
<path d="M20193 9795 c-27 -11 -50 -41 -40 -52 15 -14 56 -10 84 10 39 26 40
31 10 44 -17 8 -31 7 -54 -2z"/>
<path d="M21000 9660 c19 -16 38 -29 42 -30 4 0 14 14 23 30 l16 30 -58 0 -57
0 34 -30z"/>
<path d="M9930 9475 c0 -10 54 -26 69 -20 13 5 14 7 1 15 -16 10 -70 14 -70 5z"/>
<path d="M10955 9440 c3 -5 8 -10 11 -10 2 0 4 5 4 10 0 6 -5 10 -11 10 -5 0
-7 -4 -4 -10z"/>
<path d="M19505 9292 c-16 -2 -56 -10 -88 -18 -62 -16 -138 -21 -156 -10 -6 4
-11 3 -11 -3 0 -16 60 -70 100 -91 l37 -19 49 33 c110 73 192 76 269 12 39
-33 39 -33 22 -60 -15 -23 -16 -27 -3 -32 8 -3 20 -3 26 1 5 3 13 -1 16 -10 6
-14 7 -14 18 0 10 14 14 13 35 -9 33 -35 42 -33 30 6 -10 38 -44 73 -120 129
-89 65 -140 81 -224 71z"/>
<path d="M11054 9201 c17 -19 113 -47 124 -37 2 3 -8 16 -23 30 -21 20 -39 26
-73 26 -44 0 -45 0 -28 -19z"/>
<path d="M10196 9148 c44 -33 53 -36 19 -6 -16 15 -34 28 -39 28 -5 0 4 -10
20 -22z"/>
<path d="M19418 9073 c-90 -30 -93 -68 -11 -124 26 -17 60 -43 74 -56 l25 -23
17 35 c11 22 34 44 69 64 39 22 48 32 36 36 -9 4 -24 22 -33 41 -13 28 -22 34
-48 35 -18 1 -44 2 -59 3 -14 2 -46 -4 -70 -11z"/>
<path d="M9910 9073 c0 -5 28 -23 61 -41 44 -24 64 -31 72 -23 6 6 9 12 6 14
-68 49 -139 74 -139 50z"/>
<path d="M19039 9033 c-37 -9 -41 -83 -5 -83 8 0 16 -9 19 -21 4 -15 12 -20
29 -17 27 4 28 32 3 85 -18 36 -23 41 -46 36z"/>
<path d="M19158 9026 c-27 -20 -21 -31 17 -31 30 0 35 3 33 20 -4 24 -27 29
-50 11z"/>
<path d="M10124 8957 c10 -6 48 -33 85 -59 150 -108 184 -130 219 -145 l37
-15 -35 31 c-65 57 -175 138 -220 163 -50 27 -120 48 -86 25z"/>
<path d="M11778 8934 c-16 -8 -28 -16 -28 -17 0 -1 32 -3 71 -4 64 -1 70 1 56
14 -21 21 -67 24 -99 7z"/>
<path d="M11953 8879 c1 -10 7 -20 14 -20 50 -5 73 -3 73 8 0 17 -19 26 -56
29 -26 1 -32 -2 -31 -17z"/>
<path d="M12216 8869 c-33 -4 -72 -6 -87 -5 -35 3 -27 -12 16 -30 35 -14 67
-9 120 18 38 20 22 26 -49 17z"/>
<path d="M16898 8775 c-2 -1 -32 -5 -68 -9 -36 -3 -76 -8 -89 -11 -58 -11
-143 -19 -218 -19 -57 -1 -83 -5 -83 -13 0 -15 32 -25 53 -17 8 3 33 -6 54
-21 54 -35 111 -39 181 -13 31 11 62 24 67 28 21 15 103 32 169 34 46 2 72 8
84 20 15 15 15 16 -3 18 -44 3 -144 6 -147 3z"/>
<path d="M12503 8732 c-27 -4 -30 -18 -5 -30 23 -11 44 -10 49 4 5 16 -19 30
-44 26z"/>
<path d="M10460 8721 c0 -14 55 -30 70 -21 9 6 7 11 -8 19 -25 13 -62 15 -62
2z"/>
<path d="M12550 8691 c0 -13 11 -19 46 -25 l29 -5 -25 19 c-27 21 -50 26 -50
11z"/>
<path d="M18332 8650 c0 -14 2 -19 5 -12 2 6 2 18 0 25 -3 6 -5 1 -5 -13z"/>
<path d="M17694 8605 c-12 -30 1 -50 30 -50 32 0 57 28 41 44 -17 17 -66 21
-71 6z"/>
<path d="M14100 8492 c-79 -10 -27 -40 70 -41 l55 0 -28 22 c-26 22 -44 26
-97 19z"/>
<path d="M16245 8468 c-16 -5 -52 -10 -80 -11 -43 -2 -50 -5 -53 -25 -4 -28 2
-28 87 6 86 35 113 52 46 30z"/>
<path d="M15949 8426 c-2 -2 -33 -7 -69 -10 -146 -15 -168 -19 -234 -41 -38
-13 -74 -29 -80 -36 -6 -7 -6 -10 -1 -7 6 3 37 9 70 12 33 4 69 9 80 11 11 2
53 7 94 10 76 6 133 24 146 45 7 11 2 24 -6 16z"/>
<path d="M17328 8380 c-20 -17 -21 -21 -8 -30 26 -17 64 -11 95 15 l30 24 -25
1 c-14 1 -35 3 -47 6 -12 2 -32 -5 -45 -16z"/>
<path d="M16065 8070 c-8 -13 39 -24 72 -15 21 5 24 8 12 16 -19 12 -76 12
-84 -1z"/>
<path d="M12630 6364 c-50 -9 -146 -47 -188 -76 -51 -35 -118 -117 -145 -178
-124 -277 8 -573 289 -651 66 -18 219 -21 289 -5 111 26 238 137 293 256 33
70 36 82 36 180 1 58 -1 114 -4 125 -60 222 -229 352 -458 353 -48 0 -98 -2
-112 -4z m221 -213 c101 -52 142 -123 142 -246 1 -64 -4 -90 -22 -128 -63
-129 -231 -182 -368 -116 -113 55 -169 209 -125 344 20 62 90 133 153 156 63
24 163 19 220 -10z"/>
<path d="M10120 6325 c-17 -46 -100 -250 -110 -270 -5 -11 -38 -92 -74 -180
-35 -88 -87 -216 -115 -284 -28 -69 -51 -126 -51 -128 0 -2 48 -3 108 -3 l107
0 19 48 c10 26 25 64 34 85 l16 37 167 0 167 0 34 -85 33 -85 109 0 c82 0 107
3 103 13 -3 6 -34 86 -70 177 -113 288 -178 452 -226 575 l-48 120 -97 3 c-95
3 -96 2 -106 -23z m161 -398 c26 -72 46 -133 44 -135 -5 -5 -196 -4 -201 1 -2
2 19 65 47 141 29 75 54 134 57 131 3 -3 27 -65 53 -138z"/>
<path d="M10780 5905 l0 -445 242 2 241 3 0 65 c-1 36 -2 74 -2 86 -1 20 -5
21 -136 19 -116 -1 -135 1 -136 14 -1 9 -2 169 -3 356 l-1 340 -102 3 -103 3
0 -446z"/>
<path d="M11370 5906 l0 -447 188 1 c201 2 259 11 347 55 84 42 160 128 200
225 25 62 30 228 9 302 -39 134 -134 234 -269 283 -41 15 -90 19 -262 23
l-213 4 0 -446z m350 259 c116 -25 188 -113 195 -237 10 -189 -95 -293 -295
-293 l-45 0 -1 265 c0 146 1 268 2 271 4 8 99 4 144 -6z"/>
<path d="M13650 6262 l0 -88 88 1 c48 1 92 0 97 -2 7 -2 10 -128 10 -358 l0
-355 102 0 103 0 2 358 3 357 95 0 95 0 0 88 0 87 -297 0 -298 0 0 -88z"/>
<path d="M14571 6328 c-10 -27 -311 -766 -348 -855 -4 -10 20 -13 103 -13
l109 0 34 85 34 85 168 0 167 0 34 -85 33 -85 108 0 c59 0 107 2 107 3 0 2
-41 107 -91 233 -49 126 -109 276 -131 334 -23 58 -60 152 -83 210 l-42 105
-97 3 c-92 3 -97 2 -105 -20z m161 -400 c26 -72 46 -134 43 -136 -6 -6 -194
-6 -200 0 -3 3 11 47 31 99 19 52 42 113 51 137 8 24 18 40 21 37 3 -3 28 -65
54 -137z"/>
<path d="M15337 6343 c-3 -5 -7 -29 -11 -54 -4 -25 -9 -57 -11 -70 -2 -13 -6
-42 -10 -64 -3 -22 -7 -47 -10 -55 -2 -8 -6 -35 -9 -60 -4 -25 -8 -56 -11 -70
-2 -14 -9 -54 -14 -90 -20 -126 -23 -143 -27 -164 -2 -11 -11 -68 -19 -124 -9
-57 -17 -109 -18 -115 -1 -8 30 -13 101 -15 56 -1 102 1 103 5 0 4 2 17 4 28
6 29 16 110 41 305 3 25 10 72 15 105 5 33 9 65 9 70 0 10 27 -51 130 -295 29
-69 61 -146 72 -172 19 -45 23 -48 58 -48 l38 0 43 103 c118 280 179 421 179
412 0 -5 5 -41 10 -80 6 -38 12 -88 15 -110 5 -36 10 -71 20 -145 2 -14 7 -52
10 -85 11 -102 3 -95 120 -95 l103 0 -8 38 c-5 20 -11 61 -14 90 -3 29 -7 56
-10 60 -2 4 -7 31 -10 61 -4 30 -9 64 -11 75 -3 12 -7 35 -9 51 -2 17 -9 59
-15 95 -13 78 -22 138 -26 165 -1 11 -8 49 -14 85 -22 133 -24 145 -24 158 0
9 -25 12 -89 12 -87 0 -89 0 -99 -27 -6 -15 -17 -44 -26 -63 -23 -53 -36 -82
-103 -245 -34 -82 -67 -158 -72 -169 -8 -15 -27 23 -105 210 -52 126 -102 244
-110 262 l-14 32 -84 0 c-46 0 -86 -3 -88 -7z"/>
<path d="M16439 6333 c-4 -93 -3 -857 2 -865 4 -6 90 -8 225 -6 242 3 275 11
342 76 60 59 84 173 55 263 -16 52 -79 114 -125 124 l-30 7 30 32 c49 52 61
85 58 163 -5 111 -49 170 -152 207 -30 10 -92 15 -223 16 -167 1 -181 -1 -182
-17z m316 -157 c37 -16 55 -42 55 -80 0 -63 -45 -100 -127 -105 l-43 -3 0 101
0 101 40 0 c22 0 56 -6 75 -14z m58 -355 c15 -6 34 -26 44 -45 14 -30 15 -41
4 -76 -15 -52 -62 -76 -156 -79 l-65 -2 0 112 0 112 73 -6 c40 -3 86 -11 100
-16z"/>
<path d="M17250 5905 l0 -445 249 0 249 0 3 23 c2 12 2 51 -1 87 l-5 66 -145
-1 -145 0 0 98 0 97 142 0 143 0 0 85 c0 74 -2 85 -17 86 -10 0 -73 0 -140 -1
-68 0 -124 3 -124 7 -4 22 -5 149 -2 158 2 7 57 10 148 10 l145 -1 1 36 c1 19
1 58 1 85 l1 50 -252 3 -251 2 0 -445z"/>
<path d="M17940 5905 l0 -445 242 2 242 3 -1 55 c-1 30 -1 69 -2 85 l-1 30
-127 0 c-71 -1 -132 0 -138 2 -6 2 -10 130 -10 358 l0 355 -102 0 -103 0 0
-445z"/>
<path d="M18560 5905 l0 -445 243 0 242 0 -2 72 c-1 40 -2 80 -2 89 -1 13 -20
15 -131 14 -72 0 -134 2 -138 5 -4 3 -8 163 -7 355 l0 350 -102 3 -103 3 0
-446z"/>
<path d="M19200 5905 l0 -445 103 0 102 0 0 443 0 442 -102 3 -103 3 0 -446z"/>
<path d="M19620 5905 l0 -445 103 0 102 0 0 285 c0 157 1 285 1 285 1 0 44
-51 95 -112 51 -62 96 -115 99 -118 3 -3 68 -80 144 -172 l139 -168 91 0 92 0
-1 445 0 445 -102 0 -103 0 0 -285 0 -285 -53 62 c-29 35 -122 146 -207 248
-85 102 -170 202 -189 223 l-34 37 -89 0 -88 0 0 -445z"/>
<path d="M20700 5905 l0 -446 103 3 102 3 0 443 0 442 -102 0 -103 0 0 -445z"/>
<path d="M13415 4751 c-130 -37 -226 -114 -280 -225 -137 -280 -7 -586 283
-668 80 -22 212 -23 287 0 161 47 270 157 318 320 15 49 18 199 5 242 -3 8 -9
28 -13 45 -25 89 -126 207 -219 254 -102 51 -266 65 -381 32z m232 -187 c175
-60 240 -285 123 -433 -133 -168 -403 -116 -468 89 -2 8 -5 49 -5 90 -1 62 4
84 26 126 60 117 197 171 324 128z"/>
<path d="M19285 4756 c-221 -57 -359 -258 -342 -498 4 -68 12 -94 46 -164 81
-162 237 -254 431 -254 189 0 339 85 423 240 20 36 41 93 47 127 11 54 9 168
-3 213 -16 60 -22 77 -44 115 -57 102 -153 180 -268 216 -63 19 -224 22 -290
5z m260 -207 c94 -47 146 -143 141 -261 -8 -157 -119 -260 -278 -254 -155 5
-261 123 -254 282 8 166 120 269 282 260 39 -2 79 -12 109 -27z"/>
<path d="M10120 4725 c-18 -47 -100 -250 -110 -270 -5 -11 -55 -132 -110 -270
-55 -137 -107 -265 -115 -283 -8 -18 -15 -35 -15 -37 0 -3 48 -5 108 -5 l107
0 19 48 c10 26 25 64 34 85 l16 37 167 0 167 0 34 -85 33 -85 109 0 c82 0 107
3 103 13 -3 6 -17 44 -32 82 -15 39 -31 79 -36 90 -4 11 -47 119 -95 240 -47
121 -107 274 -133 340 l-48 120 -97 3 c-95 3 -96 2 -106 -23z m161 -398 c26
-72 46 -133 44 -135 -5 -5 -196 -4 -201 1 -2 2 19 65 47 141 29 75 54 134 57
131 3 -3 27 -65 53 -138z"/>
<path d="M10770 4305 l0 -445 103 0 103 0 -1 165 c0 91 2 164 6 163 4 -2 51
-68 104 -148 54 -80 105 -153 114 -163 15 -15 33 -17 141 -15 110 3 122 5 109
18 -8 8 -69 88 -136 177 l-122 161 39 16 c57 23 105 69 130 128 19 43 22 65
18 129 -4 65 -10 86 -37 131 -64 106 -123 126 -378 127 l-193 2 0 -446z m352
261 c50 -32 63 -107 28 -163 -25 -42 -51 -54 -118 -56 l-55 -2 -2 115 c-1 63
0 119 3 124 7 13 117 0 144 -18z"/>
<path d="M11462 4663 l3 -88 85 0 c47 0 90 -3 95 -7 7 -4 10 -131 10 -357 l-1
-351 103 0 103 0 0 358 0 358 95 -1 c59 -1 95 3 98 9 1 6 3 45 2 86 l0 75
-298 3 -298 2 3 -87z"/>
<path d="M12480 4305 l0 -445 103 0 102 0 0 185 0 185 133 0 c119 0 132 2 133
18 6 151 5 152 -21 153 -14 0 -74 1 -135 2 l-110 2 -1 75 c0 41 1 80 3 85 2 7
53 10 136 10 72 -1 137 0 143 2 6 2 10 36 9 86 l0 82 -248 3 -247 2 0 -445z"/>
<path d="M14202 4423 l3 -328 26 -55 c35 -75 92 -133 164 -167 56 -26 69 -28
185 -28 113 0 130 3 175 25 60 30 126 94 153 147 36 70 42 134 42 438 l0 295
-102 0 -103 0 -1 -293 c0 -282 -1 -294 -22 -339 -60 -122 -260 -108 -304 21
-8 24 -12 128 -12 321 l-1 285 -103 3 -103 3 3 -328z"/>
<path d="M15150 4305 l0 -445 103 0 102 0 0 285 c0 157 0 285 1 285 1 0 109
-128 240 -285 l238 -285 91 0 90 0 0 443 0 442 -103 3 -102 3 0 -281 c0 -154
-3 -280 -7 -279 -5 0 -46 48 -93 105 -47 58 -92 113 -100 122 -9 9 -72 85
-140 167 -69 83 -129 153 -135 157 -5 4 -49 8 -97 8 l-88 0 0 -445z"/>
<path d="M16210 4306 l0 -446 173 0 c200 0 268 10 353 52 106 51 182 143 218
261 21 69 18 207 -5 282 -17 57 -84 161 -121 190 -43 34 -80 55 -133 75 -54
22 -80 24 -272 28 l-213 4 0 -446z m367 255 c60 -16 123 -68 152 -125 20 -40
25 -64 26 -125 0 -99 -23 -158 -81 -209 -51 -45 -103 -63 -195 -65 l-64 -2 0
265 c0 146 3 268 8 271 12 9 107 3 154 -10z"/>
<path d="M17360 4725 c-17 -44 -91 -228 -105 -260 -7 -16 -34 -82 -59 -145
-26 -63 -51 -124 -55 -135 -10 -21 -116 -281 -127 -309 -5 -14 7 -16 102 -16
l109 0 34 85 34 85 170 -2 169 -3 31 -82 31 -83 109 0 c83 0 108 3 104 13 -32
79 -313 793 -326 827 l-17 45 -97 3 c-96 3 -97 3 -107 -23z m161 -396 c27 -73
47 -134 46 -136 -6 -5 -197 -6 -202 -1 -3 3 15 61 41 129 25 68 48 130 50 138
7 22 12 12 65 -130z"/>
<path d="M17862 4663 l3 -88 90 0 c50 1 92 -2 95 -6 3 -4 5 -165 5 -358 l-1
-351 103 0 103 0 0 358 0 358 88 -1 c48 -1 92 0 97 2 7 2 11 37 10 86 l0 82
-298 3 -298 2 3 -87z"/>
<path d="M18570 4305 l0 -445 103 0 102 0 0 445 0 445 -102 0 -103 0 0 -445z"/>
<path d="M20060 4305 l0 -445 103 0 103 0 -1 285 c0 157 1 285 2 285 1 0 269
-320 441 -527 l35 -43 91 0 91 0 0 445 0 445 -102 0 -103 0 -2 -282 -3 -283
-75 90 c-41 50 -87 104 -102 120 -14 17 -72 86 -129 155 -57 69 -116 139 -131
155 -15 17 -28 33 -28 38 0 4 -43 7 -95 7 l-95 0 0 -445z"/>
</g>
</svg>
